<?xml version="1.0" encoding="UTF-8" standalone="no"?><!DOCTYPE svg PUBLIC "-//W3C//DTD SVG 1.1//EN" "http://www.w3.org/Graphics/SVG/1.1/DTD/svg11.dtd"><svg width="100%" height="100%" viewBox="0 0 1427 1011" version="1.1" xmlns="http://www.w3.org/2000/svg" xmlns:xlink="http://www.w3.org/1999/xlink" xml:space="preserve" xmlns:serif="http://www.serif.com/" style="fill-rule:evenodd;clip-rule:evenodd;stroke-linejoin:round;stroke-miterlimit:2;"><g id="speech-bubble"><g id="bubble"><path id="inner" d="M529.65,918.63l-29.767,-0.63l-0.608,-92.204l-376.846,-0l-0.65,-30.733l-29.575,-0.651l0,-30.087l-31.312,-0l-0,-641.317l15.366,-0.321l15.367,-0.325l1.158,-30.154l28.996,0l0.304,-14.5c0.167,-7.971 0.492,-15.016 0.725,-15.658c0.275,-0.771 197.68,-0.963 590.625,-0.579l590.209,0.579l1.158,30.158l14.5,0.054l14.496,0.059l1.158,30.041l30.159,1.159l-0,245.983c-0.006,19.918 -0.009,41.972 -0.009,66.013c0,24.04 0.003,46.087 0.009,65.99l-0,251.083c-0.179,0.037 -0.297,1.169 -0.288,3.035c0.009,1.77 0.125,2.75 0.288,2.702l-0,5.419l-15.371,0.325l-15.367,0.321l0,30.02l-29.575,0.65l-1.158,30.155l-711.555,0.583l0.001,30.73l-0.58,-0.001l0.014,0.583l-29.518,0l-0.65,29.575l-15.366,0.321l-15.371,0.325l-0,30.915c-0.945,0.022 -1.386,0.069 -1.171,0.139c0.071,0.024 0.139,0.105 0.204,0.243Z" style="fill:#fff;"/><path id="outer" d="M122.921,31.604c-0.292,0.8 -0.667,7.717 -0.838,15.371l-0.304,13.917l-14.754,0.325l-14.75,0.325l-0.325,14.754l-0.325,14.75l-15.079,0.737c-8.292,0.409 -15.192,0.8 -15.333,0.871c-0.138,0.075 -0.4,6.788 -0.58,14.921l-0.325,14.787l-14.45,0.33c-9.775,0.22 -14.745,0.783 -15.35,1.737c-1.054,1.663 -0.97,596.346 0.088,621.921l0.717,17.396l13.341,0.233c7.334,0.134 13.988,0.263 14.788,0.292c1.079,0.042 1.45,3.871 1.45,15.133l-0,15.075l31.245,0l0.326,15.371l0.32,15.367l14.5,0.016l14.496,0.013l0.325,15.171l0.321,15.17l22.771,0.763c12.525,0.417 90.537,0.763 173.362,0.763l150.588,-0l-0,121.779l29.954,-0l0.788,-4.671c0.433,-2.571 0.67,-8.442 0.52,-13.046c-0.437,-13.754 -2.041,-12.437 15.134,-12.437l15.075,-0l-0,-30.155l13.05,-0.016c19.766,-0.025 18.266,1.316 18.266,-16.359l0,-14.941l30.155,-0l-0,-30.154l354.233,-0c194.825,-0 355.054,-0.317 356.067,-0.705c1.541,-0.591 1.833,-3.091 1.833,-15.658l-0,-14.954l30.154,-0l0,-15.054c0,-17.684 -1.704,-16.113 17.979,-16.554l12.759,-0.288l0.649,-29.575l30.084,0l-0,-641.317l-15.367,-0.32l-15.366,-0.325l-0.65,-29.509l-14.755,-0.321l-14.754,-0.325l-0.321,-15.333l-0.325,-15.337l-15.333,-0.321l-15.333,-0.325l-0.65,-30.725l-589.771,-0.009c-471.221,-0.004 -589.879,0.288 -590.3,1.446m1181.3,45.525l0.579,15.079l14.5,0.055l14.496,0.058l1.158,30.042l30.159,1.158l-0,640.225l-15.371,0.325l-15.367,0.321l0,30.02l-29.575,0.651l-0.579,15.075l-0.579,15.079l-355.775,0.291l-355.779,0.292l-0,31.313l-30.084,-0l-0.65,29.574l-15.366,0.321l-15.371,0.325l-0,31.317l-30.734,-0.65l-0.304,-46.1l-0.304,-46.104l-376.846,-0l-0.65,-30.733l-29.575,-0.651l0,-30.087l-31.312,-0l-0,-641.317l15.366,-0.321l15.367,-0.325l0.579,-15.079l0.579,-15.075l28.996,0l0.304,-14.5c0.167,-7.971 0.492,-15.016 0.725,-15.658c0.275,-0.771 197.68,-0.963 590.625,-0.579l590.209,0.579l0.579,15.079" style="fill:#080607;"/></g><path id="top-accent" d="M91.95,14.787l-0.325,14.788l-12.758,0.287c-19.555,0.438 -17.85,-1.079 -18.234,16.255l-0.325,14.775l-29.575,0.65l-0.016,13.591c-0.025,17.421 1.012,16.354 -16.267,16.746l-14.45,0.329l-0,640.221l14.45,0.329c7.95,0.18 14.737,0.784 15.079,1.338c0.346,0.558 0.483,-135.55 0.304,-302.463c-0.175,-166.908 -0.037,-304.629 0.305,-306.045c0.6,-2.471 1.22,-2.588 15.395,-2.9l14.775,-0.325l0.325,-14.788c0.18,-8.133 0.442,-14.846 0.58,-14.921c0.141,-0.071 7.041,-0.462 15.333,-0.871l15.079,-0.737l0.325,-14.75l0.325,-14.754l14.75,-0.325l14.754,-0.325l0.579,-15.079l0.584,-15.075l574.979,-0.292l574.983,-0.292l0,-30.154l-1180.63,0l-0.325,14.788m1211.55,32.766c0,7.338 0.188,10.338 0.417,6.671c0.233,-3.671 0.233,-9.671 -0,-13.342c-0.229,-3.666 -0.417,-0.666 -0.417,6.671m39.333,44.934c4.334,0.225 11.117,0.225 15.08,-0.005c3.958,-0.225 0.412,-0.408 -7.88,-0.404c-8.291,0 -11.533,0.188 -7.2,0.409m22.271,343.029c0,171.596 0.134,241.621 0.296,155.612c0.167,-86.008 0.167,-226.408 0,-311.991c-0.162,-85.588 -0.296,-15.217 -0.296,156.379m-0.279,320.108c0.013,2.554 0.25,3.463 0.525,2.017c0.279,-1.442 0.267,-3.529 -0.021,-4.638c-0.291,-1.108 -0.516,0.071 -0.504,2.621" style="fill:#e63746;"/><path id="bottom-accent" d="M1395.85,459.292l-0,305.033l-30.083,0l-0.65,29.575l-12.759,0.287c-19.683,0.442 -17.979,-1.129 -17.979,16.555l0,15.054l-30.154,-0l-0,15.054c-0,14.654 -0.071,15.075 -2.608,15.688c-1.438,0.345 -161.796,0.487 -356.359,0.312l-353.746,-0.321l0.355,15.371l0.35,15.367l-30.28,-0l0,30.05l-3.937,0.737c-2.163,0.409 -9.738,0.563 -16.829,0.342c-7.092,-0.217 -12.367,-0.221 -11.721,-0.008c0.708,0.233 1.171,6.287 1.171,15.366l-0,14.984l-15.075,-0c-11.242,-0 -15.1,0.366 -15.167,1.45c-0.05,0.795 -0.183,7.341 -0.292,14.541c-0.158,10.213 -0.583,13.329 -1.941,14.188c-1.484,0.937 -1.438,1.104 0.291,1.116c1.821,0.017 2.029,1.484 2.029,14.392c0,16.842 -0.954,15.792 14.305,15.767c16.87,-0.025 15.729,1.112 16.108,-16.059l0.325,-14.662l14.496,-0.579l14.5,-0.58l0.325,-14.25c0.387,-17.07 -0.263,-16.483 18.283,-16.483c14.208,0 13.138,1.371 13.579,-17.4l0.288,-12.179l28.992,-1.158l0.324,-14.663c0.313,-14.037 0.434,-14.687 2.901,-15.35c1.416,-0.379 161.616,-0.696 355.995,-0.708l353.425,-0.013l0.325,-14.787l0.321,-14.792l14.5,-0.579l14.496,-0.579l0.329,-13.846c0.417,-17.487 -0.312,-16.746 16.892,-17.146l14.096,-0.325l0.65,-29.575l13.208,0c7.263,0 14.033,-0.317 15.042,-0.704c1.666,-0.638 1.837,-29.921 1.837,-320.108l0,-319.409l-30.158,0l-0,305.034m-1241.4,398.591c-0.425,0.425 -0.775,6.946 -0.775,14.492l-0,13.717l157.737,0.296l157.734,0.299l-0,-29.574l-156.963,-0c-86.329,-0 -157.308,0.345 -157.733,0.77" style="fill:#7681A1;"/></g></svg>