<?xml version="1.0" encoding="UTF-8" standalone="no"?><!DOCTYPE svg PUBLIC "-//W3C//DTD SVG 1.1//EN" "http://www.w3.org/Graphics/SVG/1.1/DTD/svg11.dtd"><svg width="100%" height="100%" viewBox="0 0 15105 6945" version="1.1" xmlns="http://www.w3.org/2000/svg" xmlns:xlink="http://www.w3.org/1999/xlink" xml:space="preserve" xmlns:serif="http://www.serif.com/" style="fill-rule:evenodd;clip-rule:evenodd;stroke-linejoin:round;stroke-miterlimit:2;"><g id="plugs"><path id="inner" d="M6597.21,4861.1l-347.208,-0l-0,-2951.38l347.208,-0l0,2951.38Zm3993.08,-0l-347.249,-0l-0,-2951.38l347.249,-0l0,2951.38Zm-4513.92,-173.584l-1388.88,0l-0,-2604.18l1388.88,0l-0,2604.18Zm-1736.08,-347.249l-520.846,-0l-0,-1909.71l520.846,0l-0,1909.71Zm-868.071,-694.413l-868.054,0l-0,-520.85l868.054,-0l-0,520.85Zm-1041.67,-173.629l-2430.55,-0l-0,-173.613l2430.55,0l0,173.613Zm12673.6,-0l-2430.54,-0l-0,-173.613l2430.54,0l-0,173.613Zm-2604.17,173.629l-868.042,0l0,-520.85l868.042,-0l-0,520.85Zm-1215.29,694.413l-520.834,-0l0,-1909.71l520.834,0l-0,1909.71Zm173.624,-173.584l-173.624,0l-0,-1562.51l173.624,-0l0,1562.51Zm-7638.89,0l-173.613,0l0,-1562.51l173.613,-0l-0,1562.51Zm868.054,347.209l-173.625,-0l-0,-2256.95l173.625,-0l-0,2256.95Zm5381.96,-1388.89l-1388.92,-0l-0,-1041.67l1388.92,0l0,1041.67Zm0,520.85l-520.833,0l-0,-520.85l520.833,-0l0,520.85Zm0,1041.66l-1388.92,0l-0,-1041.66l1388.92,0l0,1041.66Z" style="fill:#fff;fill-rule:nonzero;"/><path id="tip" d="M9375,3472.22l-694.458,-0l-0,-173.613l694.458,0l0,173.613Zm-868.041,694.458l-1041.67,0l-0,-173.625l1041.67,0l-0,173.625Zm-0,-1388.9l-1041.67,0l-0,-173.608l1041.67,-0l-0,173.608Z" style="fill:#d39d05;fill-rule:nonzero;"/><path id="tip-accent" d="M8506.96,4166.68l-173.626,0l0,-173.625l173.626,0l-0,173.625Zm868.041,-694.458l-173.625,-0l0,-173.613l173.625,0l0,173.613Zm-868.041,-694.446l-173.626,0l0,-173.608l173.626,-0l-0,173.608Z" style="fill:#b56700;fill-rule:nonzero;"/><path id="shadow" d="M3819.45,4166.68l-173.613,0l0,-173.625l173.613,0l-0,173.625Zm-0,-173.625l-173.613,0l0,-173.625l173.613,0l-0,173.625Zm-347.225,-347.204l-173.609,0l0,-173.629l173.609,-0l-0,173.629Zm-173.609,0l-173.612,0l0,-173.629l173.612,-0l0,173.629Zm-173.612,0l-173.612,0l-0,-173.629l173.612,-0l0,173.629Zm-173.612,0l-173.609,0l0,-173.629l173.609,-0l-0,173.629Zm-173.609,0l-173.612,0l-0,-173.629l173.612,-0l0,173.629Zm-347.225,-173.629l-173.608,-0l-0,-173.613l173.608,0l0,173.613Zm-173.608,-0l-173.613,-0l0,-173.613l173.613,0l-0,173.613Zm1215.28,-0l-173.609,-0l0,-173.613l173.609,0l-0,173.613Zm-0,-173.613l-173.609,0l0,-173.608l173.609,0l-0,173.608Zm520.833,1041.65l-173.608,-0l-0,-173.584l173.608,0l0,173.584Zm0,-173.584l-173.608,0l-0,-173.625l173.608,0l0,173.625Zm173.613,173.584l-173.613,-0l0,-173.584l173.613,0l-0,173.584Zm-0,-173.584l-173.613,0l0,-173.625l173.613,0l-0,173.625Zm173.625,173.584l-173.625,-0l-0,-173.584l173.625,0l-0,173.584Zm-0,-173.584l-173.625,0l-0,-173.625l173.625,0l-0,173.625Zm347.208,347.209l-173.625,-0l-0,-173.625l173.625,-0l0,173.625Zm0,-173.625l-173.625,-0l-0,-173.584l173.625,0l0,173.584Zm173.625,347.249l-173.625,0l0,-173.624l173.625,-0l0,173.624Zm0,-173.624l-173.625,-0l0,-173.625l173.625,-0l0,173.625Zm173.583,173.624l-173.583,0l0,-173.624l173.583,-0l0,173.624Zm0,-173.624l-173.583,-0l0,-173.625l173.583,-0l0,173.625Zm173.625,173.624l-173.625,0l0,-173.624l173.625,-0l0,173.624Zm0,-173.624l-173.625,-0l0,-173.625l173.625,-0l0,173.625Zm173.626,173.624l-173.626,0l0,-173.624l173.626,-0l-0,173.624Zm-0,-173.624l-173.626,-0l0,-173.625l173.626,-0l-0,173.625Zm173.582,173.624l-173.582,0l-0,-173.624l173.582,-0l0,173.624Zm0,-173.624l-173.582,-0l-0,-173.625l173.582,-0l0,173.625Zm173.626,173.624l-173.626,0l0,-173.624l173.626,-0l-0,173.624Zm-0,-173.624l-173.626,-0l0,-173.625l173.626,-0l-0,173.625Zm173.625,173.624l-173.625,0l-0,-173.624l173.625,-0l-0,173.624Zm-0,-173.624l-173.625,-0l-0,-173.625l173.625,-0l-0,173.625Zm173.583,173.624l-173.583,0l-0,-173.624l173.583,-0l-0,173.624Zm-0,-173.624l-173.583,-0l-0,-173.625l173.583,-0l-0,173.625Zm520.833,347.208l-173.583,-0l0,-173.584l173.583,0l0,173.584Zm0,-173.584l-173.583,0l0,-173.624l173.583,-0l0,173.624Zm2256.96,0l-173.625,0l-0,-173.624l173.625,-0l-0,173.624Zm-0,-173.624l-173.625,-0l-0,-173.625l173.625,-0l-0,173.625Zm173.624,173.624l-173.624,0l-0,-173.624l173.624,-0l0,173.624Zm0,-173.624l-173.624,-0l-0,-173.625l173.624,-0l0,173.625Zm173.584,173.624l-173.584,0l0,-173.624l173.584,-0l0,173.624Zm0,-173.624l-173.584,-0l0,-173.625l173.584,-0l0,173.625Zm173.625,173.624l-173.625,0l0,-173.624l173.625,-0l0,173.624Zm0,-173.624l-173.625,-0l0,-173.625l173.625,-0l0,173.625Zm173.625,173.624l-173.625,0l0,-173.624l173.625,-0l-0,173.624Zm-0,-173.624l-173.625,-0l0,-173.625l173.625,-0l-0,173.625Zm173.584,173.624l-173.584,0l-0,-173.624l173.584,-0l-0,173.624Zm-0,-173.624l-173.584,-0l-0,-173.625l173.584,-0l-0,173.625Zm173.624,173.624l-173.624,0l-0,-173.624l173.624,-0l0,173.624Zm0,-173.624l-173.624,-0l-0,-173.625l173.624,-0l0,173.625Zm173.625,173.624l-173.625,0l0,-173.624l173.625,-0l0,173.624Zm0,-173.624l-173.625,-0l0,-173.625l173.625,-0l0,173.625Zm347.209,347.208l-173.625,-0l-0,-173.584l173.625,0l-0,173.584Zm-0,-173.584l-173.625,0l-0,-173.624l173.625,-0l-0,173.624Zm173.624,173.584l-173.624,-0l-0,-173.584l173.624,0l0,173.584Zm0,-173.584l-173.624,0l-0,-173.624l173.624,-0l0,173.624Zm347.209,-347.249l-173.625,-0l0,-173.584l173.625,0l-0,173.584Zm-0,-173.584l-173.625,0l0,-173.625l173.625,0l-0,173.625Zm173.625,173.584l-173.625,-0l-0,-173.584l173.625,0l-0,173.584Zm-0,-173.584l-173.625,0l-0,-173.625l173.625,0l-0,173.625Zm173.584,173.584l-173.584,-0l-0,-173.584l173.584,0l-0,173.584Zm-0,-173.584l-173.584,0l-0,-173.625l173.584,0l-0,173.625Zm173.624,0l-173.624,0l-0,-173.625l173.624,0l0,173.625Zm0,-173.625l-173.624,0l-0,-173.625l173.624,0l0,173.625Zm347.209,-347.204l-173.584,0l0,-173.629l173.584,-0l-0,173.629Zm-0,-173.629l-173.584,-0l0,-173.613l173.584,0l-0,173.613Zm-0,-173.613l-173.584,0l0,-173.608l173.584,0l-0,173.608Zm173.625,347.242l-173.625,0l-0,-173.629l173.625,-0l-0,173.629Zm173.624,0l-173.624,0l-0,-173.629l173.624,-0l0,173.629Zm173.584,0l-173.584,0l0,-173.629l173.584,-0l0,173.629Zm173.625,0l-173.625,0l0,-173.629l173.625,-0l-0,173.629Zm347.209,-173.629l-173.584,-0l-0,-173.613l173.584,0l-0,173.613Zm173.624,-0l-173.624,-0l-0,-173.613l173.624,0l0,173.613Zm-6597.21,1388.88l-173.625,-0l-0,-173.584l173.625,0l0,173.584Zm0,-173.584l-173.625,0l-0,-173.624l173.625,-0l0,173.624Z" style="fill:#d6d6d6;fill-rule:nonzero;"/><path id="effect" d="M7812.5,6250.01l-173.625,-0l-0,-173.625l173.625,-0l0,173.625Zm0,173.583l-173.625,-0l-0,-173.583l173.625,-0l0,173.583Zm0,-0l-173.625,-0l-0,-173.583l173.625,-0l0,173.583Zm0,173.625l-173.625,-0l-0,-173.625l173.625,-0l0,173.625Zm0,-0l-173.625,-0l-0,-173.625l173.625,-0l0,173.625Zm0,173.625l-173.625,-0l-0,-173.625l173.625,-0l0,173.625Zm0,-0l-173.625,-0l-0,-173.625l173.625,-0l0,173.625Zm0,173.583l-173.625,0l-0,-173.583l173.625,-0l0,173.583Zm-1041.67,-694.416l-173.625,-0l0,-173.625l173.625,-0l0,173.625Zm0,173.583l-173.625,-0l0,-173.583l173.625,-0l0,173.583Zm-173.625,173.625l-173.583,-0l0,-173.625l173.583,-0l0,173.625Zm0,173.625l-173.583,-0l0,-173.625l173.583,-0l0,173.625Zm2083.33,-520.833l173.625,-0l-0,-173.625l-173.625,-0l-0,173.625Zm-0,173.583l173.625,-0l-0,-173.583l-173.625,-0l-0,173.583Zm173.625,173.625l173.624,-0l0,-173.625l-173.624,-0l-0,173.625Zm-0,173.625l173.624,-0l0,-173.625l-173.624,-0l-0,173.625Zm-1215.29,-6076.4l173.625,-0l-0,173.612l-173.625,0l-0,-173.612Zm-0,-173.609l173.625,0l-0,173.609l-173.625,-0l-0,-173.609Zm-0,0l173.625,0l-0,173.609l-173.625,-0l-0,-173.609Zm-0,-173.612l173.625,-0l-0,173.612l-173.625,0l-0,-173.612Zm-0,-0l173.625,-0l-0,173.612l-173.625,0l-0,-173.612Zm-0,-173.613l173.625,0l-0,173.613l-173.625,-0l-0,-173.613Zm-0,0l173.625,0l-0,173.613l-173.625,-0l-0,-173.613Zm-0,-173.608l173.625,0l-0,173.608l-173.625,0l-0,-173.608Zm1041.67,694.442l173.625,-0l-0,173.612l-173.625,0l-0,-173.612Zm-0,-173.609l173.625,0l-0,173.609l-173.625,-0l-0,-173.609Zm173.625,-173.612l173.624,-0l0,173.612l-173.624,0l-0,-173.612Zm-0,-173.613l173.624,0l0,173.613l-173.624,-0l-0,-173.613Zm-2083.33,520.834l-173.625,-0l0,173.612l173.625,0l0,-173.612Zm0,-173.609l-173.625,0l0,173.609l173.625,-0l0,-173.609Zm-173.625,-173.612l-173.583,-0l0,173.612l173.583,0l0,-173.612Zm0,-173.613l-173.583,0l0,173.613l173.583,-0l0,-173.613Z" style="fill:#d39d05;fill-rule:nonzero;"/><path id="outline" d="M2604.17,3645.85l-173.613,0l0,-173.629l173.613,-0l-0,173.629Zm-0,-347.242l-173.613,0l0,-173.608l173.613,0l-0,173.608Zm173.612,-173.608l-173.612,0l-0,-173.612l173.612,-0l0,173.612Zm-173.612,520.85l-173.613,0l0,-173.629l173.613,-0l-0,173.629Zm-173.613,-347.242l-173.608,0l-0,-173.608l173.608,0l0,173.608Zm0,347.242l-173.608,0l-0,-173.629l173.608,-0l0,173.629Zm-173.608,-347.242l-173.613,0l0,-173.608l173.613,0l-0,173.608Zm-0,347.242l-173.613,0l0,-173.629l173.613,-0l-0,173.629Zm-173.613,-347.242l-173.612,0l-0,-173.608l173.612,0l0,173.608Zm0,347.242l-173.612,0l-0,-173.629l173.612,-0l0,173.629Zm-173.612,-347.242l-173.609,0l0,-173.608l173.609,0l-0,173.608Zm-0,347.242l-173.609,0l0,-173.629l173.609,-0l-0,173.629Zm-173.609,-347.242l-173.612,0l0,-173.608l173.612,0l0,173.608Zm0,347.242l-173.612,0l0,-173.629l173.612,-0l0,173.629Zm-173.612,-347.242l-173.612,0l-0,-173.608l173.612,0l0,173.608Zm0,347.242l-173.612,0l-0,-173.629l173.612,-0l0,173.629Zm-173.612,-347.242l-173.609,0l0,-173.608l173.609,0l-0,173.608Zm-0,347.242l-173.609,0l0,-173.629l173.609,-0l-0,173.629Zm-173.609,-347.242l-173.612,0l-0,-173.608l173.612,0l0,173.608Zm0,347.242l-173.612,0l-0,-173.629l173.612,-0l0,173.629Zm-173.612,-347.242l-173.613,0l0,-173.608l173.613,0l-0,173.608Zm-0,347.242l-173.613,0l0,-173.629l173.613,-0l-0,173.629Zm-173.613,-347.242l-173.608,0l-0,-173.608l173.608,0l0,173.608Zm0,347.242l-173.608,0l-0,-173.629l173.608,-0l0,173.629Zm-173.608,-347.242l-173.613,0l0,-173.608l173.613,0l-0,173.608Zm-0,347.242l-173.613,0l0,-173.629l173.613,-0l-0,173.629Zm-173.613,-347.242l-173.612,0l-0,-173.608l173.612,0l0,173.608Zm0,347.242l-173.612,0l-0,-173.629l173.612,-0l0,173.629Zm-173.612,-347.242l-173.613,0l0,-173.608l173.613,0l-0,173.608Zm-0,347.242l-173.613,0l0,-173.629l173.613,-0l-0,173.629Zm-173.613,-347.242l-173.608,0l0,-173.608l173.608,0l0,173.608Zm0,347.242l-173.608,0l0,-173.629l173.608,-0l0,173.629Zm2430.56,-173.629l-173.613,-0l0,-173.613l173.613,0l-0,173.613Zm173.612,347.208l-173.612,0l-0,-173.579l173.612,0l0,173.579Zm173.609,-694.429l-173.609,0l0,-173.612l173.609,-0l-0,173.612Zm-0,694.429l-173.609,0l0,-173.579l173.609,0l-0,173.579Zm173.612,-694.429l-173.612,0l-0,-173.612l173.612,-0l0,173.612Zm0,694.429l-173.612,0l-0,-173.579l173.612,0l0,173.579Zm173.612,-694.429l-173.612,0l0,-173.612l173.612,-0l0,173.612Zm0,694.429l-173.612,0l0,-173.579l173.612,0l0,173.579Zm173.609,-694.429l-173.609,0l0,-173.612l173.609,-0l-0,173.612Zm-0,694.429l-173.609,0l0,-173.579l173.609,0l-0,173.579Zm173.612,173.625l-173.612,0l-0,-173.625l173.612,0l0,173.625Zm0,-173.625l-173.612,0l-0,-173.579l173.612,0l0,173.579Zm0,-173.579l-173.612,0l-0,-173.629l173.612,-0l0,173.629Zm0,-173.629l-173.612,-0l-0,-173.613l173.612,0l0,173.613Zm0,-173.613l-173.612,0l-0,-173.608l173.612,0l0,173.608Zm0,-173.608l-173.612,0l-0,-173.612l173.612,-0l0,173.612Zm0,-173.612l-173.612,-0l-0,-173.613l173.612,0l0,173.613Zm0,-173.613l-173.612,0l-0,-173.608l173.612,-0l0,173.608Zm173.613,-173.608l-173.613,-0l0,-173.613l173.613,0l-0,173.613Zm-173.613,1562.51l-173.612,0l-0,-173.625l173.612,0l0,173.625Zm347.221,347.209l-173.608,-0l-0,-173.625l173.608,-0l0,173.625Zm173.613,-0l-173.613,-0l0,-173.625l173.613,-0l-0,173.625Zm173.625,-0l-173.625,-0l-0,-173.625l173.625,-0l-0,173.625Zm-347.238,-2083.33l-173.608,0l-0,-173.612l173.608,-0l0,173.612Zm173.613,0l-173.613,0l0,-173.612l173.613,-0l-0,173.612Zm173.625,0l-173.625,0l-0,-173.612l173.625,-0l-0,173.612Zm-520.846,1909.71l-173.613,-0l0,-173.584l173.613,0l-0,173.584Zm8680.55,-1215.26l173.625,0l-0,173.608l-173.625,0l0,-173.608Zm0,347.221l173.625,-0l-0,173.629l-173.625,0l0,-173.629Zm-173.625,173.629l173.625,0l0,173.579l-173.625,0l0,-173.579Zm173.625,-520.85l173.625,0l-0,173.608l-173.625,0l0,-173.608Zm173.625,347.221l173.584,-0l-0,173.629l-173.584,0l-0,-173.629Zm-0,-347.221l173.584,0l-0,173.608l-173.584,0l-0,-173.608Zm173.584,347.221l173.624,-0l0,173.629l-173.624,0l-0,-173.629Zm-0,-347.221l173.624,0l0,173.608l-173.624,0l-0,-173.608Zm173.624,347.221l173.625,-0l0,173.629l-173.625,0l0,-173.629Zm0,-347.221l173.625,0l0,173.608l-173.625,0l0,-173.608Zm173.625,347.221l173.584,-0l-0,173.629l-173.584,0l0,-173.629Zm0,-347.221l173.584,0l-0,173.608l-173.584,0l0,-173.608Zm173.584,347.221l173.625,-0l-0,173.629l-173.625,0l-0,-173.629Zm-0,-347.221l173.625,0l-0,173.608l-173.625,0l-0,-173.608Zm173.625,347.221l173.624,-0l0,173.629l-173.624,0l-0,-173.629Zm-0,-347.221l173.624,0l0,173.608l-173.624,0l-0,-173.608Zm173.624,347.221l173.584,-0l0,173.629l-173.584,0l0,-173.629Zm0,-347.221l173.584,0l0,173.608l-173.584,0l0,-173.608Zm173.584,347.221l173.625,-0l0,173.629l-173.625,0l0,-173.629Zm0,-347.221l173.625,0l0,173.608l-173.625,0l0,-173.608Zm173.625,347.221l173.625,-0l-0,173.629l-173.625,0l0,-173.629Zm0,-347.221l173.625,0l-0,173.608l-173.625,0l0,-173.608Zm173.625,347.221l173.584,-0l-0,173.629l-173.584,0l-0,-173.629Zm-0,-347.221l173.584,0l-0,173.608l-173.584,0l-0,-173.608Zm173.584,347.221l173.624,-0l0,173.629l-173.624,0l-0,-173.629Zm-0,-347.221l173.624,0l0,173.608l-173.624,0l-0,-173.608Zm173.624,347.221l173.625,-0l0,173.629l-173.625,0l0,-173.629Zm0,-347.221l173.625,0l0,173.608l-173.625,0l0,-173.608Zm173.625,347.221l173.584,-0l-0,173.629l-173.584,0l0,-173.629Zm0,-347.221l173.584,0l-0,173.608l-173.584,0l0,-173.608Zm173.584,347.221l173.625,-0l-0,173.629l-173.625,0l-0,-173.629Zm-0,-347.221l173.625,0l-0,173.608l-173.625,0l-0,-173.608Zm-2430.54,173.608l173.625,0l-0,173.613l-173.625,-0l-0,-173.613Zm-173.625,-347.22l173.625,-0l-0,173.612l-173.625,0l0,-173.612Zm-173.584,694.462l173.584,0l0,173.579l-173.584,0l0,-173.579Zm0,-694.462l173.584,-0l0,173.612l-173.584,0l0,-173.612Zm-173.624,694.462l173.624,0l0,173.579l-173.624,0l-0,-173.579Zm-0,-694.462l173.624,-0l0,173.612l-173.624,0l-0,-173.612Zm-173.625,694.462l173.625,0l-0,173.579l-173.625,0l-0,-173.579Zm-0,-694.462l173.625,-0l-0,173.612l-173.625,0l-0,-173.612Zm-173.584,694.462l173.584,0l-0,173.579l-173.584,0l0,-173.579Zm0,-694.462l173.584,-0l-0,173.612l-173.584,0l0,-173.612Zm-173.625,-173.613l173.625,0l0,173.613l-173.625,-0l0,-173.613Zm0,173.613l173.625,-0l0,173.612l-173.625,0l0,-173.612Zm0,173.612l173.625,0l0,173.608l-173.625,0l0,-173.608Zm0,173.608l173.625,0l0,173.613l-173.625,-0l0,-173.613Zm0,173.613l173.625,-0l0,173.629l-173.625,0l0,-173.629Zm0,173.629l173.625,0l0,173.579l-173.625,0l0,-173.579Zm0,173.579l173.625,0l0,173.625l-173.625,0l0,-173.625Zm0,173.625l173.625,0l0,173.625l-173.625,0l0,-173.625Zm-173.624,173.625l173.624,0l0,173.584l-173.624,-0l-0,-173.584Zm173.624,-1562.51l173.625,-0l0,173.608l-173.625,0l0,-173.608Zm-347.208,-347.225l173.584,-0l-0,173.612l-173.584,0l-0,-173.612Zm-173.625,-0l173.625,-0l-0,173.612l-173.625,0l-0,-173.612Zm-173.625,-0l173.625,-0l-0,173.612l-173.625,0l0,-173.612Zm347.25,2083.32l173.584,-0l-0,173.625l-173.584,-0l-0,-173.625Zm-173.625,-0l173.625,-0l-0,173.625l-173.625,-0l-0,-173.625Zm-173.625,-0l173.625,-0l-0,173.625l-173.625,-0l0,-173.625Zm520.834,-1909.71l173.624,0l0,173.613l-173.624,-0l-0,-173.613Zm-6770.83,1909.71l-173.583,-0l-0,-173.584l173.583,0l-0,173.584Zm-0,-173.584l-173.583,0l-0,-173.625l173.583,0l-0,173.625Zm-0,-173.625l-173.583,0l-0,-173.625l173.583,0l-0,173.625Zm-0,-173.625l-173.583,0l-0,-173.579l173.583,0l-0,173.579Zm-0,-173.579l-173.583,0l-0,-173.629l173.583,-0l-0,173.629Zm-0,-173.629l-173.583,-0l-0,-173.613l173.583,0l-0,173.613Zm-0,-173.613l-173.583,0l-0,-173.608l173.583,0l-0,173.608Zm-0,-173.608l-173.583,0l-0,-173.612l173.583,-0l-0,173.612Zm-0,-173.612l-173.583,-0l-0,-173.613l173.583,0l-0,173.613Zm-0,-173.613l-173.583,0l-0,-173.608l173.583,-0l-0,173.608Zm-0,-173.608l-173.583,-0l-0,-173.613l173.583,0l-0,173.613Zm-0,-173.613l-173.583,0l-0,-173.612l173.583,-0l-0,173.612Zm173.625,-173.612l-173.625,-0l-0,-173.609l173.625,0l-0,173.609Zm173.625,-173.609l-173.625,0l-0,-173.612l173.625,-0l0,173.612Zm173.583,0l-173.583,0l0,-173.612l173.583,-0l0,173.612Zm173.625,0l-173.625,0l0,-173.612l173.625,-0l0,173.612Zm173.626,0l-173.626,0l0,-173.612l173.626,-0l-0,173.612Zm173.582,0l-173.582,0l-0,-173.612l173.582,-0l0,173.612Zm173.626,0l-173.626,0l0,-173.612l173.626,-0l-0,173.612Zm173.625,0l-173.625,0l-0,-173.612l173.625,-0l-0,173.612Zm173.583,0l-173.583,0l-0,-173.612l173.583,-0l-0,173.612Zm173.625,0l-173.625,0l-0,-173.612l173.625,-0l-0,173.612Zm173.625,-173.612l-173.625,-0l-0,-173.613l173.625,0l0,173.613Zm173.583,-0l-173.583,-0l0,-173.613l173.583,0l0,173.613Zm173.625,173.612l-173.625,0l0,-173.612l173.625,-0l0,173.612Zm0,173.609l-173.625,-0l0,-173.609l173.625,0l0,173.609Zm0,173.612l-173.625,0l0,-173.612l173.625,-0l0,173.612Zm0,173.613l-173.625,-0l0,-173.613l173.625,0l0,173.613Zm0,173.608l-173.625,0l0,-173.608l173.625,-0l0,173.608Zm0,173.613l-173.625,-0l0,-173.613l173.625,0l0,173.613Zm0,173.612l-173.625,0l0,-173.612l173.625,-0l0,173.612Zm0,173.608l-173.625,0l0,-173.608l173.625,0l0,173.608Zm0,173.613l-173.625,-0l0,-173.613l173.625,0l0,173.613Zm0,173.629l-173.625,0l0,-173.629l173.625,-0l0,173.629Zm0,173.579l-173.625,0l0,-173.579l173.625,0l0,173.579Zm0,173.625l-173.625,0l0,-173.625l173.625,0l0,173.625Zm0,173.625l-173.625,0l0,-173.625l173.625,0l0,173.625Zm0,173.584l-173.625,-0l0,-173.584l173.625,0l0,173.584Zm0,173.625l-173.625,-0l0,-173.625l173.625,-0l0,173.625Zm0,173.624l-173.625,0l0,-173.624l173.625,-0l0,173.624Zm0,173.584l-173.625,-0l0,-173.584l173.625,0l0,173.584Zm-173.625,173.625l-173.583,-0l0,-173.625l173.583,-0l0,173.625Zm-173.583,-0l-173.625,-0l-0,-173.625l173.625,-0l0,173.625Zm-173.625,-173.625l-173.625,-0l-0,-173.584l173.625,0l-0,173.584Zm-0,-173.584l-173.625,0l-0,-173.624l173.625,-0l-0,173.624Zm-0,-173.624l-173.625,-0l-0,-173.625l173.625,-0l-0,173.625Zm-0,-173.625l-173.625,-0l-0,-173.584l173.625,0l-0,173.584Zm-0,-173.584l-173.625,0l-0,-173.625l173.625,0l-0,173.625Zm-0,-173.625l-173.625,0l-0,-173.625l173.625,0l-0,173.625Zm-0,-173.625l-173.625,0l-0,-173.579l173.625,0l-0,173.579Zm-0,-173.579l-173.625,0l-0,-173.629l173.625,-0l-0,173.629Zm-0,-173.629l-173.625,-0l-0,-173.613l173.625,0l-0,173.613Zm-0,-173.613l-173.625,0l-0,-173.608l173.625,0l-0,173.608Zm-0,-173.608l-173.625,0l-0,-173.612l173.625,-0l-0,173.612Zm-0,-173.612l-173.625,-0l-0,-173.613l173.625,0l-0,173.613Zm-0,-173.613l-173.625,0l-0,-173.608l173.625,-0l-0,173.608Zm-0,-173.608l-173.625,-0l-0,-173.613l173.625,0l-0,173.613Zm-0,-173.613l-173.625,0l-0,-173.612l173.625,-0l-0,173.612Zm-0,-173.612l-173.625,-0l-0,-173.609l173.625,0l-0,173.609Zm3993.04,-173.609l-173.584,0l0,-173.612l173.584,-0l-0,173.612Zm173.625,-173.612l-173.625,-0l-0,-173.613l173.625,0l-0,173.613Zm173.624,-0l-173.624,-0l-0,-173.613l173.624,0l0,173.613Zm173.584,173.612l-173.584,0l0,-173.612l173.584,-0l0,173.612Zm0,173.609l-173.584,-0l0,-173.609l173.584,0l0,173.609Zm0,173.612l-173.584,0l0,-173.612l173.584,-0l0,173.612Zm0,173.613l-173.584,-0l0,-173.613l173.584,0l0,173.613Zm0,173.608l-173.584,0l0,-173.608l173.584,-0l0,173.608Zm0,173.613l-173.584,-0l0,-173.613l173.584,0l0,173.613Zm0,173.612l-173.584,0l0,-173.612l173.584,-0l0,173.612Zm0,173.608l-173.584,0l0,-173.608l173.584,0l0,173.608Zm0,173.613l-173.584,-0l0,-173.613l173.584,0l0,173.613Zm0,173.629l-173.584,0l0,-173.629l173.584,-0l0,173.629Zm0,173.579l-173.584,0l0,-173.579l173.584,0l0,173.579Zm0,173.625l-173.584,0l0,-173.625l173.584,0l0,173.625Zm0,173.625l-173.584,0l0,-173.625l173.584,0l0,173.625Zm0,173.584l-173.584,-0l0,-173.584l173.584,0l0,173.584Zm0,173.625l-173.584,-0l0,-173.625l173.584,-0l0,173.625Zm0,173.624l-173.584,0l0,-173.624l173.584,-0l0,173.624Zm0,173.584l-173.584,-0l0,-173.584l173.584,0l0,173.584Zm-173.584,173.625l-173.624,-0l-0,-173.625l173.624,-0l0,173.625Zm-173.624,-0l-173.625,-0l-0,-173.625l173.625,-0l-0,173.625Zm-173.625,-173.625l-173.584,-0l0,-173.584l173.584,0l-0,173.584Zm-0,-173.584l-173.584,0l0,-173.624l173.584,-0l-0,173.624Zm-0,-173.624l-173.584,-0l0,-173.625l173.584,-0l-0,173.625Zm-0,-173.625l-173.584,-0l0,-173.584l173.584,0l-0,173.584Zm-0,-173.584l-173.584,0l0,-173.625l173.584,0l-0,173.625Zm-0,-173.625l-173.584,0l0,-173.625l173.584,0l-0,173.625Zm-0,-173.625l-173.584,0l0,-173.579l173.584,0l-0,173.579Zm-0,-173.579l-173.584,0l0,-173.629l173.584,-0l-0,173.629Zm-0,-173.629l-173.584,-0l0,-173.613l173.584,0l-0,173.613Zm-0,-173.613l-173.584,0l0,-173.608l173.584,0l-0,173.608Zm-0,-173.608l-173.584,0l0,-173.612l173.584,-0l-0,173.612Zm-0,-173.612l-173.584,-0l0,-173.613l173.584,0l-0,173.613Zm-0,-173.613l-173.584,0l0,-173.608l173.584,-0l-0,173.608Zm-0,-173.608l-173.584,-0l0,-173.613l173.584,0l-0,173.613Zm-1736.08,-0l-173.626,-0l0,-173.613l173.626,0l-0,173.613Zm-173.626,-0l-173.625,-0l0,-173.613l173.625,0l0,173.613Zm-173.625,-0l-173.583,-0l0,-173.613l173.583,0l0,173.613Zm-173.583,-0l-173.625,-0l-0,-173.613l173.625,0l0,173.613Zm-173.625,-0l-173.625,-0l-0,-173.613l173.625,0l-0,173.613Zm-173.625,-0l-173.583,-0l-0,-173.613l173.583,0l-0,173.613Zm-173.583,173.608l-173.625,0l-0,-173.608l173.625,-0l-0,173.608Zm173.583,173.613l-173.583,-0l-0,-173.613l173.583,0l-0,173.613Zm173.625,-0l-173.625,-0l-0,-173.613l173.625,0l-0,173.613Zm173.625,-0l-173.625,-0l-0,-173.613l173.625,0l0,173.613Zm173.583,-0l-173.583,-0l0,-173.613l173.583,0l0,173.613Zm173.625,-0l-173.625,-0l0,-173.613l173.625,0l0,173.613Zm173.626,-0l-173.626,-0l0,-173.613l173.626,0l-0,173.613Zm-0,1041.67l-173.626,0l0,-173.625l173.626,0l-0,173.625Zm-173.626,0l-173.625,0l0,-173.625l173.625,0l0,173.625Zm-173.625,0l-173.583,0l0,-173.625l173.583,0l0,173.625Zm-173.583,0l-173.625,0l-0,-173.625l173.625,0l0,173.625Zm-173.625,0l-173.625,0l-0,-173.625l173.625,0l-0,173.625Zm-173.625,0l-173.583,0l-0,-173.625l173.583,0l-0,173.625Zm-173.583,173.625l-173.625,0l-0,-173.625l173.625,0l-0,173.625Zm173.583,173.584l-173.583,-0l-0,-173.584l173.583,0l-0,173.584Zm173.625,-0l-173.625,-0l-0,-173.584l173.625,0l-0,173.584Zm173.625,-0l-173.625,-0l-0,-173.584l173.625,0l0,173.584Zm173.583,-0l-173.583,-0l0,-173.584l173.583,0l0,173.584Zm173.625,-0l-173.625,-0l0,-173.584l173.625,0l0,173.584Zm173.626,-0l-173.626,-0l0,-173.584l173.626,0l-0,173.584Zm1736.08,-1909.71l-173.584,0l0,-173.612l173.584,-0l-0,173.612Zm-0,-173.612l-173.584,-0l0,-173.609l173.584,0l-0,173.609Zm-347.209,-173.609l-173.624,0l-0,-173.612l173.624,-0l0,173.612Zm-173.624,0l-173.584,0l-0,-173.612l173.584,-0l-0,173.612Zm-173.584,0l-173.625,0l-0,-173.612l173.625,-0l-0,173.612Zm-173.625,0l-173.625,0l0,-173.612l173.625,-0l-0,173.612Zm-173.625,0l-173.584,0l0,-173.612l173.584,-0l0,173.612Zm-173.584,0l-173.624,0l-0,-173.612l173.624,-0l0,173.612Zm-173.624,0l-173.625,0l-0,-173.612l173.625,-0l-0,173.612Zm-173.625,0l-173.583,0l-0,-173.612l173.583,-0l-0,173.612Zm-0,347.221l-173.583,0l-0,-173.612l173.583,-0l-0,173.612Zm-0,-173.612l-173.583,-0l-0,-173.609l173.583,0l-0,173.609Zm-0,347.225l-173.583,-0l-0,-173.613l173.583,0l-0,173.613Zm-0,173.608l-173.583,0l-0,-173.608l173.583,-0l-0,173.608Zm-0,173.613l-173.583,-0l-0,-173.613l173.583,0l-0,173.613Zm-0,173.612l-173.583,0l-0,-173.612l173.583,-0l-0,173.612Zm-0,173.608l-173.583,0l-0,-173.608l173.583,0l-0,173.608Zm-0,173.613l-173.583,-0l-0,-173.613l173.583,0l-0,173.613Zm-0,173.629l-173.583,0l-0,-173.629l173.583,-0l-0,173.629Zm173.625,-347.242l-173.625,0l-0,-173.608l173.625,0l-0,173.608Zm-0,347.242l-173.625,0l-0,-173.629l173.625,-0l-0,173.629Zm173.624,-347.242l-173.624,0l-0,-173.608l173.624,0l0,173.608Zm0,347.242l-173.624,0l-0,-173.629l173.624,-0l0,173.629Zm173.584,-347.242l-173.584,0l0,-173.608l173.584,0l0,173.608Zm0,347.242l-173.584,0l0,-173.629l173.584,-0l0,173.629Zm173.625,-347.242l-173.625,0l0,-173.608l173.625,0l-0,173.608Zm-0,347.242l-173.625,0l0,-173.629l173.625,-0l-0,173.629Zm173.625,-347.242l-173.625,0l-0,-173.608l173.625,0l-0,173.608Zm-0,347.242l-173.625,0l-0,-173.629l173.625,-0l-0,173.629Zm-0,-173.629l-173.625,-0l-0,-173.613l173.625,0l-0,173.613Zm-868.083,347.208l-173.583,0l-0,-173.579l173.583,0l-0,173.579Zm-0,173.625l-173.583,0l-0,-173.625l173.583,0l-0,173.625Zm-0,173.625l-173.583,0l-0,-173.625l173.583,0l-0,173.625Zm-0,173.584l-173.583,-0l-0,-173.584l173.583,0l-0,173.584Zm-0,173.625l-173.583,-0l-0,-173.625l173.583,-0l-0,173.625Zm-0,173.624l-173.583,0l-0,-173.624l173.583,-0l-0,173.624Zm-0,173.584l-173.583,-0l-0,-173.584l173.583,0l-0,173.584Zm173.625,-0l-173.625,-0l-0,-173.584l173.625,0l-0,173.584Zm173.624,-0l-173.624,-0l-0,-173.584l173.624,0l0,173.584Zm173.584,-0l-173.584,-0l0,-173.584l173.584,0l0,173.584Zm173.625,-0l-173.625,-0l0,-173.584l173.625,0l-0,173.584Zm173.625,-0l-173.625,-0l-0,-173.584l173.625,0l-0,173.584Zm173.584,-0l-173.584,-0l-0,-173.584l173.584,0l-0,173.584Zm173.624,-0l-173.624,-0l-0,-173.584l173.624,0l0,173.584Zm173.625,-2777.76l-173.625,0l0,-173.612l173.625,-0l0,173.612Zm0,2777.76l-173.625,-0l0,-173.584l173.625,0l0,173.584Zm-5555.58,-347.208l-173.583,-0l-0,-173.625l173.583,-0l-0,173.625Zm347.25,347.208l-173.625,-0l-0,-173.584l173.625,0l0,173.584Zm173.583,-0l-173.583,-0l0,-173.584l173.583,0l0,173.584Zm173.625,-0l-173.625,-0l0,-173.584l173.625,0l0,173.584Zm173.626,-0l-173.626,-0l0,-173.584l173.626,0l-0,173.584Zm173.582,-0l-173.582,-0l-0,-173.584l173.582,0l0,173.584Zm173.626,-0l-173.626,-0l0,-173.584l173.626,0l-0,173.584Zm173.625,-0l-173.625,-0l-0,-173.584l173.625,0l-0,173.584Zm173.583,-0l-173.583,-0l-0,-173.584l173.583,0l-0,173.584Zm-1388.88,-173.584l-173.625,0l-0,-173.624l173.625,-0l-0,173.624Z" style="fill:#070707;fill-rule:nonzero;"/></g></svg>