<?xml version="1.0" encoding="UTF-8" standalone="no"?><!DOCTYPE svg PUBLIC "-//W3C//DTD SVG 1.1//EN" "http://www.w3.org/Graphics/SVG/1.1/DTD/svg11.dtd"><svg width="64px" height="64px" viewBox="0 0 334 220" version="1.1" xmlns="http://www.w3.org/2000/svg" xmlns:xlink="http://www.w3.org/1999/xlink" xml:space="preserve" xmlns:serif="http://www.serif.com/" style="fill-rule:evenodd;clip-rule:evenodd;stroke-linejoin:round;stroke-miterlimit:2;"><path d="M94.008,79.651c-0.375,12.958 5.523,18.696 5.669,22.34c-0.141,1.504 -0.938,2.843 -2.136,3.588l-6.67,5.125c-0.863,0.665 -1.881,1.046 -2.933,1.099c-0.225,-0.012 -4.268,1.047 -10.672,-14.651c-7.912,10.843 -19.971,17.071 -32.625,16.848c-8.483,0.509 -31.472,-5.286 -30.29,-32.158c-0.828,-21.899 17.748,-35.503 36.96,-34.354c3.7,0.012 11.255,0.212 24.485,3.587l0,-8.936c1.402,-15.137 -7.659,-26.882 -23.349,-25.12c-1.25,0.006 -10.109,-0.286 -23.886,5.784c-3.835,1.933 -4.325,1.613 -5.601,1.613c-3.862,0 -2.272,-12.288 -1.532,-13.845c2.714,-3.661 18.685,-10.497 34.359,-10.4c10.476,-1.017 20.907,2.536 29.019,9.886c6.663,8.182 9.992,19.013 9.207,29.954l-0.005,39.64Zm-45.031,18.53c16.898,-0.269 24.053,-11.424 25.684,-17.431c1.281,-5.75 1.068,-9.388 1.068,-15.675c-5.039,-1.328 -12.292,-2.775 -20.614,-2.787c-7.894,-0.652 -22.312,3.221 -21.75,18.456c-0.646,9.605 5.795,17.964 15.612,17.437Z" style="fill-rule:nonzero;"/><path d="M138.039,111.368c-4.096,0.412 -6.003,-2.78 -6.607,-5.933l-25.95,-94.194c-0.505,-1.591 -0.839,-3.232 -1,-4.909c-0.198,-1.429 0.709,-2.784 2.011,-3.003c0.125,-0.023 -1.11,-0 11.594,-0c4.575,-0.504 6.065,3.45 6.539,5.932l18.613,80.568l17.279,-80.568c0.276,-1.842 1.532,-6.333 6.67,-5.858l8.941,0c1.131,-0.103 5.789,-0.286 6.608,5.933l17.414,81.597l19.212,-81.597c0.25,-1.247 1.417,-6.505 6.607,-5.933l10.276,0c0.443,-0.074 3.204,-0.463 2.735,4.909c-0.224,1.058 1.777,-6.099 -27.486,97.198c-0.6,3.152 -2.512,6.344 -6.608,5.932l-9.739,0c-5.7,0.658 -6.518,-5.526 -6.607,-6.15l-17.279,-78.45l-17.08,78.37c-0.084,0.624 -0.902,6.808 -6.608,6.15l-9.535,0l-0,0.006Z" style="fill-rule:nonzero;"/><path d="M280.542,114.589c-3.064,0.006 -17.675,-0.172 -29.889,-7.031c-2.483,-1.154 -4.095,-3.853 -4.069,-6.814l-0,-6.15c-0,-4.834 3.23,-3.947 4.601,-3.369c5.231,2.322 8.587,4.084 15.012,5.492c19.097,4.308 27.497,-1.316 29.555,-2.563c6.852,-4.468 7.394,-14.691 2.736,-19.995c-5.461,-5.028 -8.066,-5.217 -27.685,-12.014c-2.418,-0.738 -22.771,-7.786 -22.818,-29.954c-0.317,-16.156 13.053,-32.14 36.225,-32.009c6.602,-0.005 24.194,2.363 28.957,8.936c0.703,1.196 1.052,2.603 1,4.028l0,5.784c0,2.54 -0.844,3.81 -2.538,3.81c-4.017,-0.492 -11.145,-6.39 -25.616,-6.15c-3.59,-0.206 -20.785,0.52 -20.014,14.285c-0.224,10.847 13.866,14.914 15.476,15.383c18.998,6.276 25.35,7.317 32.89,16.923c8.931,12.729 4.116,27.632 2.267,31.717c-9.942,21.447 -35.652,19.702 -36.09,19.691Z" style="fill-rule:nonzero;"/><path d="M301.489,174.578c-36.491,29.589 -89.463,45.338 -134.692,45.338c-61.01,0.442 -120.013,-24.208 -165.321,-69.068c-3.403,-3.37 -0.402,-7.986 3.736,-5.418c50.272,31.573 107.202,48.165 165.118,48.125c43.252,-0.255 86.035,-9.889 125.886,-28.348c6.138,-2.86 11.344,4.463 5.273,9.371Z" style="fill:#e88735;fill-rule:nonzero;"/><path d="M316.699,155.533c-4.668,-6.59 -30.889,-3.077 -42.629,-1.539c-3.538,0.441 -4.137,-2.929 -0.932,-5.417c20.879,-16.116 55.171,-11.499 59.11,-6.082c3.934,5.418 -1.068,43.142 -20.613,61.163c-3.002,2.786 -5.873,1.315 -4.539,-2.346c4.398,-12.157 14.272,-39.182 9.603,-45.779Z" style="fill:#e88735;fill-rule:nonzero;"/></svg>