<?xml version="1.0" encoding="UTF-8" standalone="no"?><!DOCTYPE svg PUBLIC "-//W3C//DTD SVG 1.1//EN" "http://www.w3.org/Graphics/SVG/1.1/DTD/svg11.dtd"><svg width="100%" height="100%" viewBox="0 0 267 267" version="1.1" xmlns="http://www.w3.org/2000/svg" xmlns:xlink="http://www.w3.org/1999/xlink" xml:space="preserve" xmlns:serif="http://www.serif.com/" style="fill-rule:evenodd;clip-rule:evenodd;stroke-linejoin:round;stroke-miterlimit:2;"><rect id="Artboard1" x="0" y="-0" width="266.691" height="266.473" style="fill:none;"/><clipPath id="_clip1"><rect x="0" y="-0" width="266.691" height="266.473"/></clipPath><g clip-path="url(#_clip1)"><g><path d="M117.448,0.165c-39.384,4.146 -74.76,34.962 -84.71,74.069c-3.731,14.372 -3.731,35.101 0,49.472c8.706,34.133 36.206,61.771 71.03,71.306c10.916,3.04 32.612,4.146 42.562,2.073c35.1,-7.048 65.225,-32.613 76.419,-65.226c9.397,-27.223 6.495,-58.868 -7.877,-83.051c-6.633,-11.194 -21.005,-25.98 -32.613,-33.58c-10.64,-7.048 -27.085,-13.128 -38.278,-14.372c-13.819,-1.52 -16.721,-1.658 -26.533,-0.691Zm38.279,80.15c10.226,-0 16.582,0.553 16.582,1.382c0,0.829 -11.055,23.354 -24.459,50.162l-24.598,48.643l-0.414,-31.369l-0.277,-31.369l-16.997,-0.414c-9.259,-0.277 -16.859,-0.968 -16.721,-1.521c0.138,-0.69 11.332,-22.801 24.874,-49.333l24.736,-48.228l0.415,31.092l0.276,30.955l16.583,-0Z" style="fill:#138d7f;fill-rule:nonzero;"/><path d="M211.795,208.462l-3.351,0.459l0,56.361l7.803,0l-0,-20.975l7.251,-0.275c10.832,-0.413 16.569,-2.203 20.608,-6.38c3.167,-3.258 4.039,-5.691 4.039,-11.611c-0,-4.498 -0.138,-5.324 -1.239,-7.665c-2.295,-4.957 -7.16,-8.307 -14.228,-9.73c-3.993,-0.826 -15.284,-0.918 -20.883,-0.184Zm20.745,6.977c2.8,0.872 5.783,3.304 6.884,5.645c1.148,2.386 1.102,7.114 -0.091,9.822c-1.974,4.452 -6.242,6.196 -16.431,6.655l-6.655,0.321l-0,-11.52c-0,-10.556 0.046,-11.52 0.826,-11.75c1.652,-0.504 13.172,0.092 15.467,0.827Z" style="fill:#138d7f;fill-rule:nonzero;"/><path d="M-0.384,208.37l-0,56.912l7.802,0l0,-26.161l23.866,0l0,-6.425l-23.866,-0l0,-17.9l26.62,-0l-0,-6.426l-34.422,0Z" style="fill:#138d7f;fill-rule:nonzero;"/><path d="M168.79,211.216c-5.783,13.035 -10.694,24.968 -15.605,38.094c-3.167,8.491 -5.783,15.559 -5.783,15.697c0,0.183 1.79,0.229 3.947,0.183l3.947,-0.137l2.571,-7.252l2.57,-7.206l26.207,0l2.57,7.252l2.57,7.206l4.268,0.137c3.902,0.138 4.223,0.046 3.902,-0.688c-0.138,-0.459 -1.836,-5.003 -3.718,-10.143c-6.196,-16.753 -14.274,-36.534 -17.67,-43.372l-1.331,-2.617l-7.206,0l-1.239,2.846Zm7.481,12.025c3.534,8.674 7.848,20.011 7.848,20.745c0,0.551 -1.698,0.643 -10.51,0.643c-5.829,-0 -10.648,-0.138 -10.74,-0.368c-0.459,-0.78 9.914,-26.711 10.694,-26.711c0.184,-0 1.423,2.57 2.708,5.691Z" style="fill:#138d7f;fill-rule:nonzero;"/><path d="M258.93,208.37l0,56.912l7.344,0l-0,-56.912l-7.344,0Z" style="fill:#138d7f;fill-rule:nonzero;"/><path d="M123.536,209.793c-1.147,0.23 -2.524,0.551 -3.121,0.689l-1.056,0.229l0.138,22.811c0.138,20.424 0.23,23.04 0.964,24.921c1.101,2.892 3.167,5.187 5.645,6.426c2.983,1.423 9.776,1.744 13.953,0.643c4.727,-1.24 4.589,-1.056 3.763,-4.498l-0.688,-2.938l-2.433,0.826c-3.212,1.148 -8.123,1.148 -10.281,0.046c-0.872,-0.413 -1.973,-1.514 -2.524,-2.386c-0.872,-1.515 -0.918,-2.525 -1.055,-14.825l-0.138,-13.172l16.109,-0l0,-5.967l-16.063,0l-0,-6.655c-0,-5.048 -0.138,-6.655 -0.551,-6.609c-0.321,0.046 -1.515,0.23 -2.662,0.459Z" style="fill:#138d7f;fill-rule:nonzero;"/><path d="M44.961,222.369c-3.671,0.734 -4.13,0.964 -3.855,1.973c0.092,0.459 0.321,1.744 0.505,2.892l0.275,2.111l2.616,-0.642c1.423,-0.322 4.59,-0.689 6.977,-0.735c3.901,-0.046 4.589,0.046 6.379,1.056c3.351,1.882 4.59,4.406 4.636,9.363l-0,2.203l-1.469,-0.276c-11.015,-2.249 -21.021,1.056 -23.728,7.849c-0.827,2.065 -0.735,7.894 0.183,10.051c2.983,7.206 10.235,9.225 26.161,7.298c3.029,-0.368 5.691,-0.689 5.875,-0.689c0.229,0 0.321,-7.16 0.229,-15.972c-0.137,-15.008 -0.229,-16.064 -1.147,-18.358c-1.515,-3.718 -3.029,-5.37 -6.426,-7.069c-2.937,-1.422 -3.396,-1.514 -8.628,-1.606c-3.305,-0.046 -6.747,0.138 -8.583,0.551Zm16.982,23.82c0.413,0.23 0.551,2.203 0.551,6.93l-0,6.61l-2.57,0.321c-1.423,0.138 -4.361,0.183 -6.564,0.092c-6.746,-0.413 -9.225,-2.387 -9.225,-7.436c0,-2.157 0.184,-2.753 1.377,-4.13c2.157,-2.433 4.36,-3.029 10.556,-2.892c2.892,0.092 5.554,0.276 5.875,0.505Z" style="fill:#138d7f;fill-rule:nonzero;"/><path d="M88.884,222.598c-3.35,1.056 -6.242,3.397 -7.527,6.105c-1.055,2.157 -1.331,7.114 -0.505,9.225c0.826,2.157 3.947,5.094 6.977,6.425c13.31,6.059 14.136,6.701 14.136,10.373c-0,1.928 -0.184,2.386 -1.423,3.396c-1.928,1.652 -3.121,1.882 -8.904,1.836c-3.901,-0.046 -5.645,-0.275 -7.757,-1.056c-1.514,-0.504 -2.799,-0.872 -2.937,-0.78c-0.092,0.138 -0.459,1.469 -0.78,3.029l-0.597,2.8l1.239,0.459c4.865,1.882 14.366,2.433 19.231,1.147c7.022,-1.881 10.143,-6.379 9.225,-13.493c-0.642,-5.003 -3.304,-7.344 -12.484,-10.969c-3.855,-1.515 -6.104,-2.708 -7.297,-3.856c-1.561,-1.468 -1.744,-1.881 -1.744,-3.993c-0,-2.019 0.183,-2.432 1.377,-3.488c0.78,-0.642 2.294,-1.423 3.35,-1.698c2.341,-0.643 8.032,-0.275 10.832,0.734c1.101,0.368 2.157,0.689 2.34,0.689c0.551,-0 1.515,-5.554 1.056,-6.013c-0.734,-0.734 -7.481,-1.79 -11.291,-1.744c-2.386,0 -4.773,0.322 -6.517,0.872Z" style="fill:#138d7f;fill-rule:nonzero;"/></g></g></svg>