<?xml version="1.0" encoding="UTF-8" standalone="no"?><!DOCTYPE svg PUBLIC "-//W3C//DTD SVG 1.1//EN" "http://www.w3.org/Graphics/SVG/1.1/DTD/svg11.dtd"><svg width="100%" height="100%" viewBox="0 0 354 196" version="1.1" xmlns="http://www.w3.org/2000/svg" xmlns:xlink="http://www.w3.org/1999/xlink" xml:space="preserve" xmlns:serif="http://www.serif.com/" style="fill-rule:evenodd;clip-rule:evenodd;stroke-linejoin:round;stroke-miterlimit:2;"><path d="M189.45,33.079l4.767,0.084l12.95,-12.951l0.625,-5.487c-10.292,-9.154 -23.833,-14.725 -38.654,-14.725c-26.833,-0 -49.483,18.258 -56.192,42.992c1.417,-0.988 4.438,-0.25 4.438,-0.25l25.883,-4.259c0,0 1.333,-2.208 2,-2.071c11.467,-12.544 30.968,-14.015 44.188,-3.333l-0.005,0Z" style="fill:#ea4335;fill-rule:nonzero;"/><path d="M225.409,43.038c-2.975,-10.946 -9.082,-20.79 -17.567,-28.317l-18.342,18.342c7.62,6.123 12.061,15.387 12.063,25.162l-0,3.238c8.925,-0 16.167,7.262 16.167,16.166c-0,8.904 -7.263,16.167 -16.167,16.167l-32.342,-0l-3.237,3.25l-0,19.408l3.237,3.221l32.342,0c23.035,-0.061 41.967,-19.007 42.012,-42.042c-0.016,-14.316 -7.233,-27 -18.208,-34.596l0.042,0.001Z" style="fill:#4285f4;fill-rule:nonzero;"/><path d="M136.8,119.704l32.334,0l-0,-25.883l-32.334,-0c-2.296,0.001 -4.565,-0.492 -6.654,-1.446l-4.666,1.429l-12.95,12.95l-1.134,4.375c7.285,5.593 16.224,8.613 25.409,8.583l-0.005,-0.008Z" style="fill:#34a853;fill-rule:nonzero;"/><path d="M136.8,35.592c-23.058,0.036 -42.021,18.999 -42.058,42.058c0,13.151 6.177,25.567 16.667,33.5l18.75,-18.75c-5.791,-2.605 -9.533,-8.392 -9.534,-14.742c0,-8.925 7.263,-16.166 16.167,-16.166c6.347,0.011 12.128,3.749 14.742,9.533l18.75,-18.75c-7.692,-10.125 -19.834,-16.667 -33.5,-16.667l0.016,-0.016Z" style="fill:#fbbc05;fill-rule:nonzero;"/><path d="M24.67,180.979c-6.727,-0 -12.503,-2.38 -17.371,-7.141c-4.868,-4.76 -7.299,-10.485 -7.299,-17.162c-0,-6.676 2.428,-12.401 7.299,-17.161c4.871,-4.761 10.653,-7.144 17.371,-7.144c6.223,-0.09 12.229,2.324 16.658,6.696l-4.688,4.687c-3.206,-3.1 -7.513,-4.807 -11.973,-4.744c-4.855,-0 -8.981,1.714 -12.364,5.163c-3.324,3.301 -5.156,7.823 -5.068,12.507c0,4.906 1.682,9.066 5.068,12.503c3.216,3.374 7.704,5.248 12.364,5.163c4.944,0 9.029,-1.587 12.281,-4.868c1.904,-1.904 3.174,-4.76 3.618,-8.362l-15.886,0l-0,-6.639l22.353,0c0.238,1.181 0.318,2.539 0.318,4.126c-0,6.524 -1.914,11.697 -5.754,15.534c-4.354,4.554 -9.996,6.823 -16.962,6.823l0.035,0.019Zm51.949,-4.443c-3.046,2.983 -6.759,4.443 -11.145,4.443c-4.385,-0 -8.105,-1.492 -11.145,-4.443c-3.04,-2.952 -4.563,-6.706 -4.563,-11.171c-0,-4.465 1.523,-8.187 4.563,-11.17c3.04,-2.983 6.76,-4.443 11.145,-4.443c4.386,0 8.105,1.492 11.145,4.443c3.041,2.951 4.564,6.715 4.564,11.17c-0,4.456 -1.523,8.188 -4.564,11.171Zm-17.371,-4.38c1.6,1.74 3.866,2.72 6.229,2.695c2.412,-0 4.488,-0.895 6.23,-2.698c1.742,-1.802 2.608,-4.062 2.608,-6.791c0,-2.761 -0.856,-5.039 -2.58,-6.823c-1.723,-1.783 -3.801,-2.665 -6.258,-2.665c-2.367,-0.037 -4.643,0.933 -6.258,2.665c-1.723,1.777 -2.58,4.05 -2.58,6.823c0,2.723 0.867,4.992 2.609,6.791l0,0.003Zm51.641,4.38c-3.046,2.983 -6.759,4.443 -11.145,4.443c-4.385,-0 -8.105,-1.492 -11.145,-4.443c-3.04,-2.952 -4.563,-6.706 -4.563,-11.171c-0,-4.465 1.523,-8.187 4.563,-11.17c3.04,-2.983 6.76,-4.443 11.145,-4.443c4.386,0 8.105,1.492 11.145,4.443c3.04,2.951 4.564,6.715 4.564,11.17c-0,4.456 -1.524,8.188 -4.564,11.171Zm-17.371,-4.38c1.6,1.74 3.866,2.72 6.229,2.695c2.412,-0 4.488,-0.895 6.23,-2.698c1.742,-1.802 2.608,-4.062 2.608,-6.791c0,-2.761 -0.856,-5.039 -2.58,-6.823c-1.723,-1.783 -3.801,-2.665 -6.258,-2.665c-2.368,-0.037 -4.643,0.933 -6.258,2.665c-1.723,1.777 -2.58,4.05 -2.58,6.823c0,2.723 0.867,4.992 2.609,6.791l-0,0.003Zm39.899,22.913c-3.474,-0 -6.4,-0.933 -8.771,-2.793c-2.37,-1.86 -4.068,-4.011 -5.096,-6.467l5.991,-2.485c0.628,1.504 1.587,2.808 2.961,3.916c1.374,1.107 2.983,1.656 4.925,1.656c2.609,0 4.659,-0.793 6.134,-2.37c1.476,-1.577 2.222,-3.859 2.222,-6.823l-0,-2.222l-0.238,0c-1.904,2.371 -4.688,3.561 -8.239,3.561c-3.992,0 -7.489,-1.523 -10.494,-4.563c-2.949,-2.903 -4.579,-6.894 -4.506,-11.031c-0.074,-4.163 1.554,-8.181 4.506,-11.117c2.999,-3.056 6.505,-4.592 10.494,-4.592c1.778,0 3.39,0.334 4.83,1.009c1.441,0.676 2.58,1.505 3.409,2.485l0.238,0l-0,-2.519l6.524,-0l0,28.107c0,5.458 -1.39,9.533 -4.182,12.249c-2.793,2.698 -6.354,4.062 -10.704,4.062l-0.004,-0.063Zm0.477,-20.221c2.289,0.04 4.48,-0.95 5.962,-2.695c1.6,-1.799 2.4,-4.04 2.4,-6.734c-0,-2.723 -0.8,-5.001 -2.4,-6.823c-1.474,-1.759 -3.667,-2.76 -5.962,-2.722c-2.412,-0 -4.469,0.914 -6.163,2.722c-1.695,1.809 -2.552,4.088 -2.552,6.823c0,2.685 0.848,4.935 2.552,6.734c1.704,1.8 3.754,2.698 6.163,2.698l-0,-0.003Zm26.028,-40.827l0,46.015l-6.877,0l0,-46.015l6.877,0Zm18.85,46.954c-4.43,0 -8.124,-1.504 -11.088,-4.506c-2.964,-3.002 -4.449,-6.715 -4.449,-11.145c0,-4.582 1.428,-8.346 4.297,-11.266c2.72,-2.862 6.518,-4.456 10.466,-4.392c1.894,0 3.659,0.343 5.277,1.038c1.505,0.617 2.874,1.522 4.031,2.666c0.964,0.96 1.819,2.023 2.551,3.17c0.605,0.98 1.121,2.013 1.542,3.085l0.714,1.777l-20.925,8.669c1.586,3.161 4.125,4.745 7.591,4.745c3.16,-0 5.734,-1.438 7.705,-4.326l5.331,3.561c-1.19,1.777 -2.866,3.38 -5.039,4.801c-2.174,1.422 -4.849,2.127 -8.01,2.127l0.006,-0.004Zm-8.714,-16.121l13.963,-5.807c-0.4,-0.99 -1.123,-1.79 -2.221,-2.399c-1.104,-0.619 -2.353,-0.934 -3.618,-0.914c-2.018,-0 -3.903,0.825 -5.658,2.485c-1.755,1.659 -2.602,3.878 -2.523,6.639l0.057,-0.004Zm58.169,16.121c-6.252,0 -11.488,-2.113 -15.715,-6.346c-4.227,-4.234 -6.347,-9.505 -6.347,-15.83c0,-6.324 2.114,-11.602 6.347,-15.829c4.234,-4.227 9.467,-6.346 15.715,-6.346c6.401,-0 11.602,2.316 15.591,6.933l-3.792,3.682c-2.856,-3.599 -6.823,-5.395 -11.805,-5.395c-4.634,-0 -8.524,1.561 -11.742,4.687c-3.218,3.126 -4.773,7.21 -4.773,12.268c0,5.059 1.587,9.153 4.773,12.282c3.186,3.129 7.086,4.687 11.742,4.687c5.096,-0 9.447,-2.057 13.011,-6.163l3.792,3.792c-1.987,2.371 -4.482,4.266 -7.299,5.544c-2.988,1.375 -6.244,2.071 -9.533,2.038l0.035,-0.004Zm27.152,-0.939l-5.458,0l-0,-42.451l5.458,0l-0,42.451Zm8.895,-25.578c2.809,-2.942 6.347,-4.42 10.733,-4.42c4.385,-0 7.924,1.475 10.732,4.42c2.809,2.945 4.211,6.664 4.211,11.06c0,4.395 -1.396,8.114 -4.211,11.059c-2.815,2.945 -6.347,4.421 -10.732,4.421c-4.386,-0 -7.924,-1.476 -10.733,-4.421c-2.808,-2.945 -4.211,-6.664 -4.211,-11.059c-0,-4.396 1.396,-8.115 4.211,-11.06Zm4.062,18.67c1.904,1.913 4.106,2.875 6.664,2.875c2.558,-0 4.76,-0.962 6.664,-2.875c1.905,-1.914 2.818,-4.459 2.818,-7.617c0,-3.157 -0.942,-5.706 -2.818,-7.616c-1.875,-1.91 -4.106,-2.875 -6.664,-2.875c-2.558,-0 -4.76,0.961 -6.664,2.875c-1.904,1.914 -2.818,4.459 -2.818,7.616c0,3.158 0.943,5.706 2.818,7.617Zm51.79,6.908l-5.22,0l0,-4.03l-0.238,-0c-0.825,1.38 -2.094,2.561 -3.792,3.491c-1.698,0.929 -3.491,1.459 -5.395,1.459c-3.64,0 -6.391,-1.104 -8.267,-3.322c-1.875,-2.218 -2.818,-5.182 -2.818,-8.895l0,-17.791l5.459,0l-0,16.896c-0,5.42 2.389,8.124 7.172,8.124c2.17,0.046 4.231,-0.972 5.515,-2.723c1.41,-1.789 2.164,-4.009 2.133,-6.287l-0,-16.01l5.458,0l-0,29.06l-0.007,0.028Zm18.495,0.943c-3.754,-0 -7,-1.486 -9.723,-4.45c-2.723,-2.964 -4.088,-6.638 -4.088,-11.03c0,-4.392 1.365,-8.067 4.088,-11.031c2.723,-2.964 5.972,-4.449 9.723,-4.449c2.209,-0 4.202,0.476 5.966,1.418c1.765,0.943 3.079,2.133 3.945,3.561l0.238,-0l-0.238,-4.031l-0,-13.391l5.458,-0l0,42.46l-5.22,0l-0,-4.03l-0.238,-0c-0.866,1.418 -2.18,2.608 -3.945,3.56c-1.761,0.933 -3.754,1.409 -5.966,1.409l0,0.004Zm0.889,-4.983c2.49,0.034 4.878,-1.003 6.553,-2.846c1.799,-1.895 2.697,-4.449 2.697,-7.617c0,-3.167 -0.895,-5.753 -2.697,-7.616c-1.675,-1.843 -4.063,-2.88 -6.553,-2.846c-2.533,-0 -4.706,0.961 -6.525,2.875c-1.818,1.913 -2.723,4.458 -2.723,7.616c0,3.158 0.905,5.706 2.723,7.616c1.661,1.85 4.039,2.898 6.525,2.875l-0,-0.057Z" style="fill:#5f6368;fill-rule:nonzero;"/></svg>