<?xml version="1.0" encoding="UTF-8" standalone="no"?><!DOCTYPE svg PUBLIC "-//W3C//DTD SVG 1.1//EN" "http://www.w3.org/Graphics/SVG/1.1/DTD/svg11.dtd"><svg width="100%" height="100%" viewBox="0 0 227 270" version="1.1" xmlns="http://www.w3.org/2000/svg" xmlns:xlink="http://www.w3.org/1999/xlink" xml:space="preserve" xmlns:serif="http://www.serif.com/" style="fill-rule:evenodd;clip-rule:evenodd;stroke-linejoin:round;"><g><path d="M73.804,240.4l-15.833,0l-0,1.263l-7.458,-0l-0,-60.221l23.291,-0l0,-20.65c6.859,0.916 10.138,2.291 9.834,4.125c-0.075,0.766 -0.834,1.416 -2.263,1.95l0,14.566l23.633,0l0,61.142l-7.575,0l0,-2.179l-16.058,-0l0,29.021l-7.571,-0l0,-29.017m-15.833,-33.383l15.833,-0l0,-18.009l-15.833,0l-0,18.009m23.408,-0l16.059,-0l-0,-18.009l-16.059,0l0,18.009m16.059,7.687l-16.059,0l0,18.009l16.059,-0l-0,-18.009m-23.634,0l-15.833,0l-0,18.009l15.833,-0l0,-18.009m-42.75,-2.525c5.875,4.896 10.709,11.209 14.475,18.929l-6.221,4.709c-2.487,-5.813 -5.916,-10.859 -10.291,-15.142l-0,48.75l-7.459,0l0,-45.2c-4.375,4.438 -9.35,8.333 -14.925,11.7l-6.108,-5.392c15.604,-8.258 27.592,-23.516 35.958,-45.77l-27.25,-0l0,-7.688l12.55,0l0,-16.292c6.634,0.917 9.875,2.25 9.725,4.017c-0.075,0.842 -0.833,1.529 -2.262,2.067l-0,10.208l12.208,0l3.734,5.275c-3.846,11.542 -8.559,21.492 -14.134,29.825m159.442,-13.083l-0,-38.313c6.666,0.917 9.95,2.25 9.725,4.017c-0.075,0.687 -0.604,1.262 -1.583,1.721l-0.68,0.346l0,32.233l22.842,-0l0,7.571l-22.842,-0l0,50.708l28.5,0l0,7.733l-64.571,0l0,-7.687l28.609,-0l-0,-50.708l-23.521,-0l0,-7.605l23.521,0m-37.5,12.959c7.232,4.885 13.295,11.31 17.754,18.812l-5.654,5.275c-4.146,-7.187 -9.125,-12.771 -14.925,-16.75l-0,50.017l-7.459,-0l0,-46.688c-6.333,5.509 -13.191,9.98 -20.583,13.417l-5.541,-5.85c19.45,-8.258 34.375,-23.442 44.779,-45.542l-34.979,0l-0,-7.687l16.624,-0l0,-16.292c6.634,0.917 9.876,2.25 9.726,4.017c-0.075,0.842 -0.834,1.529 -2.263,2.067l-0,10.208l16.508,-0l3.392,5.275c-4.825,11.542 -10.625,21.45 -17.417,29.708" style="fill:#f4f4f4;fill-rule:nonzero;stroke:#e7e7e7;stroke-width:1.05px;"/><path d="M52.471,183.725l-0.525,14.625l-0.483,35.021c-0,4.658 -0.43,8.5 -1.292,11.542c-0.863,3.041 -2.208,5.595 -4.042,7.679c-1.808,2.083 -4.141,3.625 -7,4.641c-2.858,1.017 -6.291,1.517 -10.291,1.517c-3.084,0 -5.842,-0.304 -8.292,-0.917l0.708,-6.333c2.25,0.958 4.604,1.433 7.042,1.433c2.729,0 5.112,-0.345 7.142,-1.041c2.062,-0.725 3.7,-1.834 4.904,-3.342c1.237,-1.5 2.112,-3.354 2.625,-5.554c0.541,-2.2 0.808,-5.075 0.808,-8.633l-0.417,-50.638l9.042,0m22.667,56.488l-8.625,-0l0.666,-19.834c0,-8.358 -0.554,-15.416 -1.666,-21.041l9.525,-1.167l-0.571,22.208c-0.011,6.616 0.211,13.23 0.666,19.829m2.084,-54.266c0.013,1.445 -0.553,2.836 -1.571,3.862c-1.042,1.071 -2.525,1.604 -4.429,1.604c-1.625,0 -2.888,-0.458 -3.808,-1.387c-0.888,-0.958 -1.334,-2.096 -1.334,-3.429c0,-1.446 0.542,-2.709 1.625,-3.775c1.084,-1.067 2.571,-1.604 4.475,-1.604c1.554,-0 2.779,0.479 3.667,1.433c0.917,0.925 1.375,2.025 1.375,3.292m51.05,54.233l-8.667,-0l1.042,-24.904c-0,-4.459 -1,-7.492 -3,-9.113c-1.967,-1.65 -4.792,-2.475 -8.475,-2.475c-4.508,0 -8.667,1.492 -12.475,4.471l0.192,32.021l-8.667,-0l0.808,-21.346c0,-6.767 -0.7,-13.333 -2.096,-19.696l8.384,-1.083l0.904,5.292l0.375,-0c4.7,-3.875 9.729,-5.813 15.096,-5.813c5.271,0 9.35,1.071 12.237,3.208c2.888,2.113 4.334,5.888 4.334,11.325l-0.192,6.509l0.192,21.608m21,-42.125c-0.54,8.986 -0.81,17.986 -0.809,26.988c0.019,3.183 0.098,6.365 0.238,9.545l0.291,8.025c0,9.342 -3.904,15.013 -11.716,17.009l-2.375,-3.292c2.825,-2.167 4.571,-4.483 5.237,-6.942c0.984,-3.529 1.475,-11.05 1.475,-22.562c0,-12.35 -0.633,-21.583 -1.904,-27.679l9.571,-1.084m2.042,-12.104c0.012,1.445 -0.554,2.837 -1.571,3.863c-1.042,1.071 -2.525,1.604 -4.429,1.604c-1.625,-0 -2.888,-0.458 -3.809,-1.388c-0.887,-0.958 -1.333,-2.095 -1.333,-3.429c-0,-1.446 0.542,-2.708 1.625,-3.775c1.083,-1.066 2.571,-1.604 4.475,-1.604c1.554,0 2.779,0.479 3.667,1.433c0.916,0.925 1.375,2.025 1.375,3.292m46.441,54.267l-7.475,0.258c-0.375,-1.417 -0.571,-2.762 -0.571,-4.033l-0.475,-0c-3.904,3.237 -9.22,4.858 -15.958,4.858c-3.65,0 -6.792,-0.971 -9.429,-2.908c-2.633,-1.967 -3.958,-4.759 -3.958,-8.334c-0,-4.458 2.062,-8.025 6.191,-10.716c4.125,-2.721 11.792,-4.15 23,-4.292c0.096,-0.696 0.142,-1.487 0.142,-2.387c-0,-3.559 -1.042,-5.93 -3.142,-7.117c-2.062,-1.188 -5.208,-1.779 -9.429,-1.779c-4.983,-0 -9.888,0.562 -14.717,1.691l0.809,-5.987c4.762,-1.242 10.237,-1.867 16.429,-1.867c5.65,0 10.017,1.071 13.096,3.209c3.083,2.112 4.625,5.725 4.625,10.845l-0.238,7.417l-0.192,7.117c0,5.262 0.43,9.95 1.292,14.058m-8.429,-8.417l-0.237,-11.845c-5.967,-0 -10.509,0.404 -13.625,1.216c-5.209,1.446 -7.809,4.167 -7.809,8.292c0,3.933 3.042,5.9 9.142,5.9c5.237,-0 9.417,-1.188 12.525,-3.558" style="fill:#b41717;fill-rule:nonzero;stroke:#7f2828;stroke-width:1.32px;stroke-linejoin:miter;"/><path d="M191.498,3.573c0,0 -29.875,14.28 -54.191,17.43c-24.317,3.15 -70.7,6.304 -79.909,4.083c-9.208,-2.221 -15.816,-4.821 -15.816,-4.821l1.916,6.492l-5.916,5.191l1.041,1.855l2.434,0.183l7.466,0.925l1.042,3.333l4.167,0.417l2.083,7.083c-0,0 8.854,0.742 11.458,0.742c2.604,-0 7.817,-0.367 7.817,-0.367l0.167,2.779l1.916,0.367l0,3.154l-4.175,3.709l1.042,0.183l-0,1.25c-0,-0 -9.383,0.75 -13.208,0.192c-3.825,-0.559 -4.521,-0.559 -4.521,-0.559l-0.346,0.367l-0.167,1.667l0.867,-0l0.346,7.233l19.291,-0.742l-1.562,28.175l-16.333,-0.925l-0.167,-6.675l3.642,0l0.35,-2.596l3.3,-0.741l0.525,-0.734l-12.334,-2.97l-9.383,2.779l1.562,1.3l1.563,-0l0.167,2.229l3.3,0.183l-0,6.492l-3.642,0.925l0.696,1.475l0.866,0.558l0,5.009l2.259,-0l-0,23.166l-3.65,0.559l0.525,6.675l2.25,0.416l-0.346,15.209l9.904,0.183l-2.083,-15.021l14.941,-0.367l-1.041,8.15l-1.392,5.75l15.113,0.184l0.166,-14.825l10.417,-0.925l-0.517,9.458l-0.35,5.558l8.867,0l-0.35,-15.208l1.221,0.192l0.346,-7.234l-1.4,0l-0.517,-2.97l-0.867,-8.53l0.346,-9.82l1.908,-0l0,-6.009l-2.433,0.184l0.35,-7l2.825,-0.28l0.125,-2.27l1.604,-0.238l1.646,-1.25l-9.896,-2.042l-9.816,2.175l0.958,1.571l1.042,-0.083l1.208,-0.042l0.221,2.867l2.733,-0.125l0.05,6.208l-11.771,-0.271l0.392,-6.633l0.383,-6.029l0,-7.925l0.35,-8.346l23.575,-1.208l28.054,-1.617l0.263,5.333l-1,12.792l-0.433,11.908l-10.334,-0.183l-0.05,-8.346l3.825,-0.141l0.167,-2.359l1.562,-0.237l-0.083,-0.459l1.563,-0.083l0.866,-1.167l-11.683,-2.733l-11.642,2.5l0.825,1.442l1.3,-0.096l0,0.654l1.604,0l0,2.638l3.43,0.041l-0.042,7.321l-3.442,0l0,1.667l1.221,0.141l-0.125,6.35l2.563,0.142l-0.305,25.167l-3.387,0.691l0.042,1.209l1.179,-0l-0,6.446l1.95,-0l-0.517,8.808l-0.654,7.687l12.333,0.325l-0.391,-6.675l-0.909,-5.558l-0.179,-4.821l10.471,-0.183l-0.304,7.458l-0.05,7.875l5.916,0.459l8.03,-0.325l2.52,-0.742l-1.391,-4.221l-0.346,-6.633l-0.654,-4.725l9.987,-0.367l-0.433,5.833l-0.042,9.084l4,0.366l3.959,-0.083l1.908,-0.604l-1.125,-8.625l-0.383,-6.492l1.695,-0.183l0.042,-5.833l0.475,-0.096l-0.083,-1.25l-1.959,-0l-0.391,-4.263l-0.167,-18.5l1.475,-0.041l0,-6.071l0.613,0.096l-0,-1.209l-2.18,-0.191l0.05,-7.084l3.642,-0.325l-0.208,-2.366l1.604,-0.142l-0.092,-0.458l2.125,-1.067l-10.812,-2.175l-10.988,2.229l0.696,1.25l1.696,-0.142l0.092,0.559l1.433,-0l0.083,2.779l3.563,-0.042l0.304,6.817l-12.592,-0.096l-1.475,-10.242l-1.179,-5.425l-0.95,-9.733l0.567,-5.696l25.1,-1.904l0.083,-8.483l1.263,-0.325l-0.084,-1.25l-0.958,-0.559c-0,0 -13.725,2.034 -18.067,2.5l-2.125,0.23l-0.125,-1.571l-5.191,-2.717l0.066,-3.167l1.784,-0.054l0.125,-4.35c-0,0 10.637,-0.7 14.583,-1.666c3.946,-0.967 9.554,-1.855 9.554,-1.855l2.654,-7.183l5.25,-1.529l0.434,-1.208l11.895,-3.292l1.35,-1.108l-4.52,-9.875l0.433,-2.23l2.3,-1.208l1.654,-5.05l-0.821,-0.592Zm-57.15,37.638l-0.066,3.592l2.691,0.112l-0.166,3.408l-5.28,3.459l-0.333,1l2.125,0.016l-0.017,0.834l-16.133,0.791l0.108,-2.383l0.738,-1.187l0.05,-0.759l0.017,-1.641l0.416,-1.092l0.167,-0.883l-0,-0.625l0.696,-2.78l14.987,-1.862Zm-33.75,3.058l-0.391,2.417l1.262,1.483l-0.083,2.596l1.166,1.808l-0.304,2.134l0.867,1.25l-16.458,0.646l-0.042,-0.55l1.908,-0.238l0.092,-0.7l-4.167,-2.262l-0.221,-3.617l2,-0.096l0.167,-3.896l14.204,-0.975Zm24.363,55.625l9.987,0.646l-0.346,13.446l1.3,11.025l-10.591,-0.367l-0.35,-24.75Zm-66.884,0.559l15.988,0.833l-1.392,9.271l0,7.791l1.125,4.35l-15.637,0.742l-0.084,-22.987Zm102.321,0.083l0,23l-10.158,0.742l-0.35,-12.146l-1.125,-11.313l11.633,-0.283Zm-76.95,0.517l11.813,0.041l0.125,21.317l-11.025,0.192l-0.567,-6.917l-0.042,-6.858l-0.304,-7.775Z" style="fill:url(#_Radial1);stroke:#323232;stroke-width:1.73px;stroke-linejoin:miter;"/></g><defs><radialGradient id="_Radial1" cx="0" cy="0" r="1" gradientUnits="userSpaceOnUse" gradientTransform="matrix(77.4132,0,0,73.1636,115.001,76.7388)"><stop offset="0" style="stop-color:#575757;stop-opacity:1"/><stop offset="1" style="stop-color:#2f2f2f;stop-opacity:1"/></radialGradient></defs></svg>