<?xml version="1.0" encoding="UTF-8" standalone="no"?><!DOCTYPE svg PUBLIC "-//W3C//DTD SVG 1.1//EN" "http://www.w3.org/Graphics/SVG/1.1/DTD/svg11.dtd"><svg width="100%" height="100%" viewBox="0 0 9901 3146" version="1.1" xmlns="http://www.w3.org/2000/svg" xmlns:xlink="http://www.w3.org/1999/xlink" xml:space="preserve" xmlns:serif="http://www.serif.com/" style="fill-rule:evenodd;clip-rule:evenodd;stroke-linejoin:round;stroke-miterlimit:2;"><g><path d="M9298.62,1726.44c134.453,-0 253.018,70.523 278.634,224.161l-563.753,-0c25.615,-160.069 156.988,-224.161 285.119,-224.161Zm-285.065,329.972l691.883,0c0,-333.107 -217.838,-435.622 -410.061,-435.622c-275.499,0 -409.952,185.792 -409.952,393.903c-0,217.838 137.749,390.822 403.522,390.822c256.261,0 358.776,-115.377 406.872,-272.311l-124.942,0c-28.804,99.327 -115.377,163.365 -281.93,163.365c-169.742,0.054 -272.257,-108.838 -275.392,-240.157Zm-525.329,349.157c230.645,0 317.056,-108.946 355.479,-272.311l-118.511,0c-25.561,108.946 -89.599,163.365 -236.968,163.365c-140.992,0 -198.654,-48.042 -198.654,-185.792l0,-374.826l397.199,0l0,-99.327l-397.199,0l0,-188.98l-121.699,-0l-0,682.264c-0,182.711 105.703,275.607 320.353,275.607Zm-2011.61,-659.891l0,-108.946l-118.403,0l0,752.787l121.7,0l-0,-413.195c-0,-153.8 83.276,-249.83 275.499,-249.83c131.319,-0 230.646,38.423 230.646,185.792l-0,477.287l118.511,0l-0,-461.237c-0,-214.596 -131.427,-307.438 -333.215,-307.438c-137.804,-0.108 -246.642,57.554 -294.738,124.78Zm-1265.25,192.223l124.942,0c-19.185,-121.7 -73.658,-198.654 -147.369,-249.83c-73.658,-48.042 -163.365,-67.227 -262.692,-67.227c-275.391,0 -409.953,185.792 -409.953,390.714c0,188.927 115.269,394.011 409.953,394.011c246.642,0 358.776,-105.757 406.764,-272.311l-124.888,0c-41.665,105.758 -108.946,163.365 -281.93,163.365c-204.976,0 -285.011,-137.75 -285.011,-291.549c0,-176.173 131.319,-278.634 285.011,-278.634c153.908,-0 253.235,60.904 285.173,211.461Zm-1816.09,-195.411l0,-105.758l-118.511,0l0,752.787l118.511,0l0,-413.195c0,-156.934 70.469,-246.642 262.638,-246.642l-0,-108.838c-140.938,-0.054 -221.026,57.608 -262.638,121.646Zm4244.14,663.079c310.626,0 435.622,-198.653 435.622,-390.822c-0,-259.449 -182.604,-393.903 -435.622,-393.903c-269.123,0 -435.676,166.554 -435.676,393.903c-0,172.984 108.892,390.822 435.676,390.822Zm-0,-679.129c204.976,-0 317.056,108.946 317.056,288.253c0,147.369 -102.461,281.93 -317.056,281.93c-227.458,0 -314.031,-144.18 -314.031,-281.93c0.054,-179.307 128.185,-288.253 314.031,-288.253Zm-2075.6,329.972l695.017,0c0,-333.107 -221.026,-435.622 -410.061,-435.622c-275.499,0 -413.141,185.792 -413.141,393.903c0,217.838 140.884,390.822 406.765,390.822c253.018,0 358.776,-115.377 406.764,-272.311l-124.942,0c-31.992,99.327 -118.511,163.365 -281.822,163.365c-172.931,0.054 -275.392,-108.838 -278.58,-240.157Zm284.956,-329.972c134.562,-0 253.127,70.523 278.742,224.161l-563.752,-0c28.858,-160.069 160.176,-224.161 285.01,-224.161Zm-1556.64,557.321l0,105.758l121.7,0l0,-541.38c0,-147.368 -102.461,-227.349 -349.103,-227.349c-253.018,0 -339.537,102.461 -361.964,265.772l121.699,0c16.05,-108.946 76.9,-160.122 237.023,-160.122c169.796,-0 230.645,44.854 230.645,134.561l0,83.277l-240.264,-0c-176.173,-0 -374.773,35.126 -374.773,233.78c0,169.742 163.365,227.457 288.253,227.457c121.754,0.054 249.885,-22.427 326.784,-121.754Zm0,-236.968l0,28.804c0,166.553 -150.557,221.026 -294.683,221.026c-112.135,0 -195.412,-28.804 -195.412,-128.13c0,-80.089 89.708,-121.7 227.404,-121.7l262.691,0Zm-1284.44,-294.684c-76.845,-96.138 -195.411,-131.319 -313.922,-131.319c-230.646,0 -432.433,150.504 -432.433,390.714c-0,262.692 205.03,394.011 429.191,394.011c118.511,0 240.265,-35.234 317.11,-131.319l0,51.177c0,185.792 -96.084,256.261 -307.491,256.261c-121.7,-0 -249.884,-22.481 -275.446,-153.8l-124.942,-0c38.423,221.026 227.404,262.692 406.765,262.692c256.261,-0 419.626,-96.139 419.626,-390.823l-0,-663.079l-118.512,0l0,115.485l0.054,0Zm-317.11,-25.669c192.222,-0 320.353,108.946 320.353,285.064c-0,169.742 -118.511,285.065 -320.353,285.065c-185.792,0 -304.249,-118.511 -304.249,-285.065c-0.054,-176.118 134.507,-285.064 304.249,-285.064Z" style="fill:#0c0e0f;"/><path d="M1886.62,2767.48c0,208.164 -394.01,377.96 -880.863,377.96c-486.852,0 -880.863,-169.85 -880.863,-377.96c-0,-208.273 394.011,-377.961 880.863,-377.961c486.853,0 880.863,169.742 880.863,377.961Zm124.888,-1572.75c0,557.375 -451.618,1005.75 -1005.75,1005.75c-0.811,0.002 -1.623,0.003 -2.435,0.003c-550.404,-0 -1003.32,-452.915 -1003.32,-1003.32c0,-0.811 0.001,-1.623 0.003,-2.434c-0,-554.134 448.43,-1005.75 1005.75,-1005.75c554.133,0 1005.75,451.618 1005.75,1005.75Zm249.831,-941.714c-0,137.75 -112.081,249.885 -249.831,249.885c-137.749,-0 -253.072,-112.081 -253.072,-249.885c-0,-140.938 115.323,-253.018 253.072,-253.018c137.75,-0 249.831,112.08 249.831,253.018Z" style="fill:#c74334;"/><path d="M9737.38,2315.86l-28.804,-0l0,-16.05l73.658,-0l-0,16.05l-25.669,-0l-0,73.657l-19.185,0l0,-73.657Zm147.369,6.322l-3.188,0l-22.481,67.335l-15.942,0l-25.67,-67.335l0,67.335l-16.05,0l0,-89.707l25.67,-0l22.373,60.903l25.669,-60.903l25.669,-0l0,89.707l-16.05,0l0,-67.335Z" style="fill:#0c0e0f;"/></g></svg>