<?xml version="1.0" encoding="UTF-8" standalone="no"?><!DOCTYPE svg PUBLIC "-//W3C//DTD SVG 1.1//EN" "http://www.w3.org/Graphics/SVG/1.1/DTD/svg11.dtd"><svg width="100%" height="100%" viewBox="0 0 3111 817" version="1.1" xmlns="http://www.w3.org/2000/svg" xmlns:xlink="http://www.w3.org/1999/xlink" xml:space="preserve" xmlns:serif="http://www.serif.com/" style="fill-rule:evenodd;clip-rule:evenodd;stroke-linejoin:round;stroke-miterlimit:2;"><path d="M75.669,4.413c-3.75,3.75 -5,26.667 -5,82.084c0,42.916 -1.666,80.416 -4.166,83.75c-2.5,4.166 -12.084,5.833 -34.167,6.25l-30.417,-0l-1.25,27.083c-2.083,44.583 -1.25,45.833 32.084,45.833c18.75,0 30,2.084 33.333,5.417c2.917,3.75 5,58.75 5.833,172.083l1.25,166.25l10,17.084c10.834,18.75 35.417,33.75 72.084,43.333c22.916,6.25 104.583,3.75 117.916,-3.333c7.084,-3.75 8.334,-9.167 9.167,-36.667c0.833,-45 -1.25,-47.5 -37.917,-47.5c-34.166,0 -54.583,-9.167 -61.25,-27.5c-2.5,-5.833 -4.166,-68.75 -4.166,-147.5l-0,-137.083l9.583,-2.917c5,-1.667 25,-2.5 44.167,-2.083c44.583,1.25 50.416,-3.334 50.416,-37.084c0,-34.166 -6.25,-38.75 -48.75,-35.416c-23.333,1.666 -35.416,0.833 -42.916,-2.917l-10.417,-5.833l-2.083,-82.917l-2.084,-83.333l-47.916,-1.25c-33.75,-0.834 -49.584,0.416 -53.334,4.166Z" style="fill:#0b644b;fill-rule:nonzero;"/><path d="M2208.17,28.163c-21.25,5 -74.166,31.667 -94.166,47.084c-37.084,29.583 -75,94.583 -89.167,153.333c-16.25,67.917 -18.75,107.5 -10.833,170c4.166,31.25 9.166,58.75 11.25,61.25c2.083,2.083 3.75,7.5 3.75,11.667c-0,13.75 35.416,82.916 52.083,102.083c34.583,39.583 81.667,66.667 132.917,75.417c32.083,5.833 83.75,5.833 111.666,-0c30.834,-6.25 87.917,-34.584 100.417,-49.584c16.25,-19.166 25,-16.25 59.167,18.75c17.083,17.084 34.166,31.25 37.916,31.25c6.667,0 30.834,-22.916 30.834,-29.166c-0,-1.667 -4.167,-6.25 -9.167,-9.584c-5.417,-3.333 -18.333,-14.583 -28.75,-24.583c-10.833,-10 -23.333,-21.25 -28.333,-25c-11.25,-9.583 -11.25,-30.833 -0.417,-45c4.583,-5.833 8.333,-13.333 8.333,-16.667c0,-3.75 1.667,-8.333 3.75,-10.416c3.334,-4.167 5.417,-12.5 17.917,-64.584c8.75,-36.666 7.083,-153.333 -2.5,-191.666c-25,-101.25 -71.25,-161.25 -149.583,-194.584c-22.917,-9.166 -32.5,-10.833 -84.167,-12.083c-32.083,-0.417 -65,0.417 -72.917,2.083Zm122.917,42.5c43.75,12.5 90,58.75 113.333,112.084c5.417,12.5 11.667,25.833 13.75,29.583c2.084,3.75 7.5,33.333 12.5,66.25c7.5,51.25 8.334,64.167 4.167,99.167c-6.25,58.75 -12.5,81.666 -32.5,125.833c-34.583,75 -95.417,114.583 -175.833,113.75c-100.417,-0.417 -162.084,-55.417 -196.667,-175c-8.333,-28.333 -9.583,-41.667 -9.167,-101.25c0.417,-65 0.834,-70.833 13.334,-108.75c18.75,-58.333 27.916,-75.417 57.5,-107.5c30,-32.083 52.916,-47.083 88.333,-56.667c38.75,-10 70.417,-9.583 111.25,2.5Z" style="fill:#9b9c90;fill-rule:nonzero;"/><path d="M2833.59,40.663c-3.333,2.084 -8.333,12.084 -11.25,22.084c-4.583,16.666 -68.75,177.5 -85.417,213.75c-4.166,9.166 -11.25,27.083 -16.25,39.583c-5,12.5 -10.416,26.667 -12.5,31.25c-14.166,31.667 -29.166,68.75 -29.166,71.25c-0,1.667 -5.417,15 -12.5,29.583c-6.667,14.167 -12.5,28.75 -12.5,31.667c-0,2.5 -2.917,10.417 -6.667,17.5c-3.75,6.667 -12.083,27.083 -18.333,44.583c-12.917,33.75 -14.167,36.667 -28.334,64.584c-11.666,22.5 -11.666,29.583 1.25,32.916c13.334,3.334 37.5,-1.25 42.5,-7.916c2.5,-2.5 8.334,-17.084 13.75,-32.084c5.417,-15 12.084,-32.916 15,-39.583c2.917,-7.083 10,-27.917 16.25,-46.667c6.25,-18.75 15,-39.583 19.167,-46.666c7.5,-12.5 7.917,-12.5 48.333,-13.75c22.5,-0.834 83.334,-0.834 135.417,-0l95,1.25l10,21.666c11.667,25.417 44.167,109.584 44.167,115c-0,2.084 4.583,14.167 10.416,27.084l10.417,23.333l22.5,0c27.917,0 31.25,-5.833 17.5,-32.5c-9.583,-18.333 -30.833,-71.25 -62.917,-155c-25,-65.417 -47.916,-122.917 -54.166,-135.417c-3.334,-7.083 -8.75,-20 -11.667,-29.166c-3.333,-9.167 -15,-39.167 -25.833,-66.667c-10.834,-27.5 -23.334,-60.417 -27.917,-72.917c-4.583,-12.5 -11.667,-30.416 -15.833,-39.583c-4.167,-9.167 -11.667,-27.083 -16.667,-39.583c-5,-12.5 -12.083,-25.417 -15.833,-28.334c-7.5,-5.833 -29.584,-6.666 -37.917,-1.25Zm33.333,75.417c1.667,3.333 7.084,19.167 12.084,35.417c7.916,26.25 14.166,42.5 31.666,84.166c3.334,7.084 5.834,16.667 5.834,20.834c-0,4.166 1.666,9.583 3.75,11.666c4.166,4.584 12.916,27.084 25.416,65.834c4.167,13.333 9.584,26.666 11.667,29.166c2.083,2.917 5.833,10.417 8.333,17.5c2.084,6.667 5.417,15.417 7.084,19.167c1.25,4.167 -0.417,9.583 -4.167,13.75c-5.833,5.833 -20.833,6.667 -116.667,6.667l-110.416,-0l-6.25,-9.584c-5.417,-8.75 -5.417,-11.666 -0.417,-22.083c13.333,-28.333 20,-44.167 40.417,-99.583c11.666,-32.084 26.25,-70.417 31.666,-85.417c5.834,-15 11.25,-30.833 12.5,-35.417c1.25,-4.583 3.75,-10.416 5.417,-12.5c1.667,-2.5 5.417,-11.666 8.333,-20.833c2.917,-9.167 7.084,-19.167 9.584,-22.083c5.416,-6.667 20,-5 24.166,3.333Z" style="fill:#9b9c90;fill-rule:nonzero;"/><path d="M1856.5,133.58c-9.584,5.417 -27.084,24.583 -27.5,30c-0,1.667 -4.584,8.75 -10.417,15.833c-5.833,6.667 -10.417,15.834 -10.417,20.417c0,4.583 4.584,12.917 10.417,18.75c5.833,5.833 10.417,12.917 10.417,16.25c-0,2.917 2.083,10.833 4.166,16.667c5.417,14.583 11.667,10 31.667,-24.584c8.333,-14.166 19.167,-32.916 25,-42.083c12.5,-21.25 12.5,-33.333 -0.417,-45.833c-10.833,-11.25 -20.416,-12.917 -32.916,-5.417Z" style="fill:#0b644b;fill-rule:nonzero;"/><path d="M476.919,166.08c-44.583,5 -75.833,19.583 -106.25,50c-23.75,23.333 -28.333,30.833 -34.583,53.75c-7.083,25.417 -7.083,26.667 0,34.583c5,5.834 10.833,7.5 18.333,5.834c5.834,-1.25 23.75,-0.417 39.167,2.083c15.417,2.083 31.667,2.917 35.833,1.667c3.75,-1.25 9.584,-10.417 12.917,-20c3.75,-12.5 10.833,-21.25 25.833,-32.5c17.5,-13.334 24.167,-15.834 50.417,-18.334c62.5,-5.833 95,10 106.25,50.834c5.417,19.166 5.417,19.166 -7.5,31.25c-7.5,6.25 -16.25,11.666 -20,11.666c-3.75,0 -26.667,4.584 -50.833,10.417c-24.584,5.417 -60,12.917 -79.167,16.667c-52.5,10 -93.333,28.75 -118.75,54.166c-25,25 -37.083,51.667 -39.583,87.917c-5.417,82.083 45.416,142.083 131.25,155.833c53.333,8.75 117.916,-4.166 157.5,-30.833c8.75,-5.833 17.083,-9.583 19.166,-8.333c2.084,1.25 7.084,9.166 11.25,17.5c4.167,9.583 10,15.416 14.584,15c3.75,-0 29.583,-0.417 57.083,-0.834c49.583,-0.833 50,-0.833 50,-10.833c0,-5.417 -2.917,-12.083 -6.25,-15c-5.417,-4.583 -6.25,-29.583 -6.25,-178.75c0,-191.667 -1.25,-201.667 -25,-231.667c-20,-25.416 -47.5,-39.166 -100,-50.416c-28.333,-5.834 -92.5,-6.667 -135.417,-1.667Zm142.917,248.333c8.75,2.5 9.167,5 9.167,38.334c-0,42.083 -5.417,61.666 -21.667,82.083c-19.583,23.75 -47.917,35.417 -90.417,38.333c-30.833,2.084 -39.166,1.25 -55.416,-5.833c-39.167,-17.5 -51.667,-53.75 -30,-86.667c13.75,-20.833 38.75,-33.333 85,-41.666c65.416,-12.084 70,-13.334 80,-20c11.25,-7.917 10.833,-7.917 23.333,-4.584Z" style="fill:#0b644b;fill-rule:nonzero;"/><path d="M1018.59,166.08c-23.333,4.167 -49.583,17.083 -66.667,32.917c-15,13.75 -31.25,15 -31.25,2.5c0,-3.334 -2.083,-10.417 -4.583,-16.25c-5,-10.417 -5.833,-10.417 -49.583,-10c-35.834,0.416 -45.417,1.666 -48.334,7.083c-2.083,3.75 -3.333,143.75 -2.5,320l0.834,313.75l104.583,0l-0.833,-92.083c-0.834,-99.584 -0,-102.084 20.833,-97.084c5.833,1.25 14.167,6.25 19.167,11.667c4.583,5 22.083,13.75 38.75,18.75c26.666,8.75 35.833,9.583 75.416,7.917c32.5,-1.667 48.334,-4.167 55,-9.167c5.417,-3.75 12.917,-6.667 16.25,-6.667c17.5,0 70.834,-48.333 92.917,-84.166c19.583,-31.667 36.25,-95.834 36.25,-140c0,-35 -9.583,-95 -19.167,-120.834c-38.75,-102.5 -132.916,-157.5 -237.083,-138.333Zm71.25,109.583c29.583,15.417 53.333,41.667 64.167,72.5c7.916,22.5 9.166,31.667 7.5,77.084c-1.667,47.916 -2.917,52.916 -15,74.583c-22.917,41.667 -43.75,57.917 -86.667,66.667c-47.917,10 -90,-12.5 -121.667,-64.584l-15.416,-25.416l-0,-120.834l17.5,-29.166c18.333,-31.25 33.333,-45 63.333,-57.084c25.417,-10 58.75,-7.916 86.25,6.25Z" style="fill:#0b644b;fill-rule:nonzero;"/><path d="M1480.67,211.08c-14.166,1.25 -19.583,4.167 -30.416,17.5l-13.334,16.667l2.5,329.166l13.75,13.334l13.334,13.75l157.083,1.25c109.583,0.833 160,-0 167.917,-3.334c6.25,-2.5 17.083,-10.416 23.333,-17.083l12.083,-12.5l1.25,-127.5c1.25,-94.583 0,-128.75 -3.75,-132.083c-2.916,-2.917 -5.416,-2.917 -6.25,-0.417c-0.833,2.083 -7.916,14.167 -15.416,26.25c-7.084,12.5 -16.25,27.5 -19.584,33.333c-3.75,6.25 -18.75,30 -33.75,52.917c-15,22.917 -36.25,55.833 -46.666,72.917c-28.75,46.666 -42.5,57.5 -65.417,52.083c-10.417,-2.5 -41.667,-30 -41.667,-36.667c0,-2.083 -3.75,-8.75 -8.333,-14.583c-5,-6.25 -16.667,-21.667 -26.25,-34.167c-9.583,-12.5 -20.417,-26.666 -23.75,-32.083c-3.333,-5 -14.583,-20.833 -24.583,-35c-24.167,-34.167 -26.25,-51.667 -9.584,-69.583c10,-10.834 15.834,-13.334 29.167,-13.334c14.167,0 18.75,2.5 32.5,17.917c17.917,20 38.75,48.333 57.917,78.75c17.5,27.5 25.833,26.25 43.75,-5.417c19.166,-33.75 19.583,-34.166 43.75,-70.416c11.666,-17.084 21.666,-33.334 22.916,-35.417c2.084,-3.75 38.75,-58.75 47.917,-71.25c9.583,-13.333 -3.75,-15 -144.167,-15.833c-76.666,-0 -147.083,-0 -156.25,0.833Z" style="fill:#0b644b;fill-rule:nonzero;"/></svg>