<?xml version="1.0" encoding="UTF-8" standalone="no"?><!DOCTYPE svg PUBLIC "-//W3C//DTD SVG 1.1//EN" "http://www.w3.org/Graphics/SVG/1.1/DTD/svg11.dtd"><svg width="100%" height="100%" viewBox="0 0 1547 292" version="1.1" xmlns="http://www.w3.org/2000/svg" xmlns:xlink="http://www.w3.org/1999/xlink" xml:space="preserve" xmlns:serif="http://www.serif.com/" style="fill-rule:evenodd;clip-rule:evenodd;stroke-miterlimit:10;"><g><g><g><path d="M1527.19,18.743l-3.422,-0l-0,-2.489l9.021,-0l0,2.489l-3.422,-0l0,11.199l-2.488,-0l-0,-11.199l0.311,-0Zm7.466,-2.489l3.111,-0l3.111,6.222l3.11,-6.222l2.489,-0l0,13.688l-2.178,-0l0,-9.644l-3.421,6.533l-0.312,-0l-3.421,-6.533l-0,9.644l-2.489,-0l-0,-13.688Z" style="fill-rule:nonzero;"/></g><g><path d="M1471.51,162.463c26.753,-12.132 44.796,-38.574 44.796,-69.682c-0,-42.308 -34.219,-77.149 -76.838,-77.149l-96.436,-0l0,256.022l51.018,-0l-0,-98.925l27.997,0l45.419,99.236l54.439,-0l-50.395,-109.502Zm-31.731,-44.174l-45.418,0l-0,-51.639l45.418,-0c14.31,-0 25.509,11.821 25.509,25.82c0,14.309 -10.266,25.819 -25.509,25.819Z" style="fill-rule:nonzero;stroke:#000;stroke-width:3.11px;"/><path d="M732.68,15.943l-83.37,162.075l-0,93.947l-51.018,-0l0,-93.947l-83.682,-162.075l56.618,-0l52.573,96.436l52.262,-96.436l56.617,-0Z" style="fill-rule:nonzero;stroke:#000;stroke-width:3.11px;"/><path d="M861.469,220.947l95.503,0l-0,50.707l-146.521,-0l0,-255.711l51.018,-0l0,205.004Z" style="fill-rule:nonzero;stroke:#000;stroke-width:3.11px;"/><path d="M208.815,15.943l-0,51.018l-70.927,-0l-0,205.004l-51.018,-0l0,-205.004l-71.238,-0l-0,-51.018l193.183,-0Z" style="fill-rule:nonzero;stroke:#000;stroke-width:3.11px;"/><g><path d="M383.022,15.632l-14.932,-0l-130.655,256.022l57.55,-0l79.327,-155.542l73.104,155.542l56.618,-0l-121.012,-256.022Z" style="fill-rule:nonzero;stroke:#000;stroke-width:3.11px;"/><rect x="222.814" y="171.796" width="144.654" height="51.018" style="fill:#e3212e;"/></g><g><path d="M1139.89,9.41c-42.618,0 -80.57,20.221 -104.835,51.329l38.263,23.953c11.51,-13.065 26.754,-22.709 44.174,-27.375l0,112.924l44.485,-0l0,-112.924c17.421,4.666 32.975,14.31 44.485,27.687l38.264,-23.954c-24.265,-31.419 -62.217,-51.64 -104.836,-51.64Z" style="fill:#e3212e;fill-rule:nonzero;"/><path d="M1219.84,105.224c5.288,11.51 8.399,24.265 8.399,37.641c0,48.84 -39.508,88.348 -88.348,88.348c-48.84,-0 -88.348,-39.508 -88.348,-88.348c0,-13.376 3.111,-26.442 8.4,-37.952l-38.264,-23.954c-9.643,18.354 -15.243,39.508 -15.243,61.595c0,73.416 59.728,133.455 133.455,133.455c73.727,0 133.455,-59.728 133.455,-133.455c0,-22.087 -5.599,-42.93 -15.243,-61.595l-38.263,24.265Z" style="fill-rule:nonzero;stroke:#000;stroke-width:3.11px;"/></g></g></g></g></svg>